G04 #@! TF.FileFunction,Copper,L2,Bot,Signal*
%FSLAX46Y46*%
G04 Gerber Fmt 4.6, Leading zero omitted, Abs format (unit mm)*
G04 Created by KiCad (PCBNEW 4.0.7) date 06/26/18 02:25:57*
%MOMM*%
%LPD*%
G01*
G04 APERTURE LIST*
%ADD10C,0.150000*%
%ADD11R,1.200000X0.750000*%
%ADD12C,2.400000*%
%ADD13O,2.400000X2.400000*%
%ADD14C,1.500000*%
%ADD15R,1.700000X1.700000*%
%ADD16O,1.700000X1.700000*%
%ADD17R,1.200000X1.700000*%
%ADD18O,1.200000X1.700000*%
%ADD19R,1.900000X1.450000*%
%ADD20C,1.600000*%
%ADD21O,1.600000X1.600000*%
%ADD22R,0.900000X1.200000*%
%ADD23R,2.600000X3.600000*%
%ADD24C,4.400000*%
%ADD25C,0.600000*%
%ADD26C,0.300000*%
%ADD27C,0.200000*%
G04 APERTURE END LIST*
D10*
D11*
X140371000Y-158369000D03*
X138471000Y-158369000D03*
D12*
X127864000Y-79603600D03*
D13*
X122784000Y-79603600D03*
D12*
X136601000Y-79603600D03*
D13*
X131521000Y-79603600D03*
D12*
X145339000Y-79578200D03*
D13*
X140259000Y-79578200D03*
D12*
X154076000Y-79552800D03*
D13*
X148996000Y-79552800D03*
D14*
X127686000Y-130886000D03*
X130226000Y-130886000D03*
X132766000Y-130886000D03*
X135306000Y-130886000D03*
X137846000Y-130886000D03*
X140386000Y-130886000D03*
X142926000Y-130886000D03*
X145466000Y-130886000D03*
X148006000Y-130886000D03*
X148006000Y-146126000D03*
X145466000Y-146126000D03*
X142926000Y-146126000D03*
X140386000Y-146126000D03*
X137846000Y-146126000D03*
X135306000Y-146126000D03*
X132766000Y-146126000D03*
X130226000Y-146126000D03*
X127686000Y-146126000D03*
X133906000Y-143226000D03*
X136446000Y-143226000D03*
X144336000Y-143226000D03*
X146876000Y-143226000D03*
D15*
X133223000Y-151765000D03*
D16*
X135763000Y-151765000D03*
X138303000Y-151765000D03*
X140843000Y-151765000D03*
X143383000Y-151765000D03*
X145923000Y-151765000D03*
D15*
X122098000Y-127864000D03*
D16*
X122098000Y-130404000D03*
D15*
X122098000Y-141961000D03*
D16*
X122098000Y-144501000D03*
D17*
X125578000Y-74168000D03*
D18*
X127578000Y-74168000D03*
D17*
X134290000Y-74142600D03*
D18*
X136290000Y-74142600D03*
D17*
X143027000Y-74117200D03*
D18*
X145027000Y-74117200D03*
D17*
X151765000Y-74117200D03*
D18*
X153765000Y-74117200D03*
D19*
X126967000Y-94437200D03*
X126967000Y-91897200D03*
X126967000Y-89357200D03*
X126967000Y-86817200D03*
X135567000Y-86817200D03*
X135567000Y-89357200D03*
X135567000Y-91897200D03*
X135567000Y-94437200D03*
X126967000Y-106477000D03*
X126967000Y-103937000D03*
X126967000Y-101397000D03*
X126967000Y-98857000D03*
X135567000Y-98857000D03*
X135567000Y-101397000D03*
X135567000Y-103937000D03*
X135567000Y-106477000D03*
X152712000Y-86817200D03*
X152712000Y-89357200D03*
X152712000Y-91897200D03*
X152712000Y-94437200D03*
X144112000Y-94437200D03*
X144112000Y-91897200D03*
X144112000Y-89357200D03*
X144112000Y-86817200D03*
X152687000Y-98755000D03*
X152687000Y-101295000D03*
X152687000Y-103835000D03*
X152687000Y-106375000D03*
X144087000Y-106375000D03*
X144087000Y-103835000D03*
X144087000Y-101295000D03*
X144087000Y-98755000D03*
D20*
X129286000Y-115595000D03*
D21*
X129286000Y-125755000D03*
D20*
X137236000Y-115621000D03*
D21*
X137236000Y-125781000D03*
D20*
X141351000Y-115595000D03*
D21*
X141351000Y-125755000D03*
D20*
X149733000Y-115595000D03*
D21*
X149733000Y-125755000D03*
D22*
X129337000Y-119652000D03*
X129337000Y-121852000D03*
X137312000Y-121902000D03*
X137312000Y-119702000D03*
X141402000Y-119728000D03*
X141402000Y-121928000D03*
X149708000Y-121699000D03*
X149708000Y-119499000D03*
D23*
X154528000Y-136093000D03*
X125228000Y-136093000D03*
D24*
X124739000Y-151714000D03*
X154737000Y-151714000D03*
X124282000Y-121361000D03*
X154762000Y-121717000D03*
D25*
X147887700Y-105189400D03*
X137027100Y-104839400D03*
X138183200Y-103786300D03*
X133915200Y-103778200D03*
X139230300Y-121534600D03*
X147695100Y-125694600D03*
X143269300Y-155228900D03*
X139881900Y-157531500D03*
X136978300Y-87250900D03*
X136971000Y-99507000D03*
X149803100Y-111534800D03*
X151319300Y-110680400D03*
X146269700Y-110813400D03*
X134163400Y-98502400D03*
X146052700Y-89600000D03*
X147679700Y-88027700D03*
X145602100Y-92424800D03*
X145602600Y-105264500D03*
X132978400Y-104788700D03*
X134278800Y-102624400D03*
X130054700Y-144484300D03*
X137478100Y-157754300D03*
X143903900Y-141300900D03*
X128634800Y-142362600D03*
X125435900Y-93026800D03*
X124911900Y-97794100D03*
X123914000Y-102300000D03*
X130205400Y-97174200D03*
X149457300Y-96572500D03*
X154966600Y-93240600D03*
X155329900Y-95645700D03*
X154807100Y-101862200D03*
X148471600Y-111324800D03*
X151606200Y-107541100D03*
X136859200Y-132820600D03*
X144336400Y-132450100D03*
X141021900Y-154082300D03*
X136995400Y-94734400D03*
X137668700Y-107337800D03*
X145497100Y-104431000D03*
X145567500Y-106729500D03*
X149657000Y-112930400D03*
X142119100Y-103654900D03*
X145522000Y-87553700D03*
X146571900Y-91038300D03*
X146025800Y-99939300D03*
X145341700Y-102705600D03*
X151561700Y-104999600D03*
X154699100Y-102913000D03*
X155645900Y-101908800D03*
X134297000Y-126257500D03*
X134175900Y-122401800D03*
X127603600Y-107907200D03*
X127599200Y-102586600D03*
X133648500Y-123072600D03*
X125003300Y-107186000D03*
X155467400Y-94800600D03*
X149335500Y-95727100D03*
X150474200Y-95118100D03*
X133433400Y-97555500D03*
X142684700Y-125885400D03*
X138302100Y-119500300D03*
X129604800Y-104842200D03*
X142656300Y-141597300D03*
X140350400Y-132634600D03*
X133985100Y-134209800D03*
X141068900Y-133048900D03*
X131515800Y-134599000D03*
X141658300Y-130645000D03*
X140347700Y-129122000D03*
X140984400Y-128011300D03*
X149352000Y-120700800D03*
X142683200Y-138845600D03*
X145657300Y-136211000D03*
X126311200Y-110251100D03*
X130553200Y-102600200D03*
X128501800Y-106790800D03*
X134346900Y-105034500D03*
X154512700Y-108668900D03*
X150877100Y-112542900D03*
X143607200Y-119732400D03*
X146810500Y-108558900D03*
X148031100Y-112892100D03*
X150315400Y-109521400D03*
D26*
X139426400Y-119615200D02*
X139230300Y-121534600D01*
X139430600Y-119407300D02*
X139420700Y-119338600D01*
X139433500Y-119546100D02*
X139430600Y-119407300D01*
X139426400Y-119615200D02*
X139433500Y-119546100D01*
X138849400Y-115387700D02*
X139420700Y-119338600D01*
X138813000Y-115203200D02*
X138794600Y-115143200D01*
X138840400Y-115325600D02*
X138813000Y-115203200D01*
X138849400Y-115387700D02*
X138840400Y-115325600D01*
X136373600Y-107246000D02*
X138794600Y-115143200D01*
X136370300Y-107235300D02*
X136373600Y-107246000D01*
X136367000Y-107213200D02*
X136370300Y-107235300D01*
X136367000Y-107202000D02*
X136367000Y-107213200D01*
X136367000Y-107052000D02*
X136367000Y-107202000D01*
X135567000Y-106477000D02*
X136367000Y-107052000D01*
X139920500Y-157981200D02*
X139881900Y-157531500D01*
X139920700Y-157984400D02*
X139920500Y-157981200D01*
X139921000Y-157990800D02*
X139920700Y-157984400D01*
X139921000Y-157994000D02*
X139921000Y-157990800D01*
X139921000Y-158144000D02*
X139921000Y-157994000D01*
X140371000Y-158369000D02*
X139921000Y-158144000D01*
X134767000Y-105902000D02*
X135567000Y-106477000D01*
X134617000Y-105902000D02*
X134767000Y-105902000D01*
X134600800Y-105902000D02*
X134617000Y-105902000D01*
X134569300Y-105895100D02*
X134600800Y-105902000D01*
X134554600Y-105888400D02*
X134569300Y-105895100D01*
X134059800Y-105662000D02*
X134554600Y-105888400D01*
X133838300Y-105560700D02*
X134059800Y-105662000D01*
X133620700Y-105125000D02*
X133838300Y-105560700D01*
X133672700Y-104887100D02*
X133620700Y-105125000D01*
X133915200Y-103778200D02*
X133672700Y-104887100D01*
X144525800Y-152246500D02*
X143269300Y-155228900D01*
X144581800Y-152087400D02*
X144593900Y-152032500D01*
X144547600Y-152194700D02*
X144581800Y-152087400D01*
X144525800Y-152246500D02*
X144547600Y-152194700D01*
X144712100Y-151497500D02*
X144593900Y-152032500D01*
X144722300Y-151451100D02*
X144712100Y-151497500D01*
X144749800Y-151360300D02*
X144722300Y-151451100D01*
X144767000Y-151316000D02*
X144749800Y-151360300D01*
X146943300Y-145713200D02*
X144767000Y-151316000D01*
X146977100Y-145626000D02*
X146943300Y-145713200D01*
X147072400Y-145465000D02*
X146977100Y-145626000D01*
X147132500Y-145393300D02*
X147072400Y-145465000D01*
X153342900Y-137989400D02*
X147132500Y-145393300D01*
X153378000Y-137919400D02*
X153378000Y-137893000D01*
X153359900Y-137969100D02*
X153378000Y-137919400D01*
X153342900Y-137989400D02*
X153359900Y-137969100D01*
X153378000Y-137743000D02*
X153378000Y-137893000D01*
X154528000Y-136093000D02*
X153378000Y-137743000D01*
X143036000Y-99369100D02*
X138183200Y-103786300D01*
X143056700Y-99350200D02*
X143036000Y-99369100D01*
X143109000Y-99330000D02*
X143056700Y-99350200D01*
X143137000Y-99330000D02*
X143109000Y-99330000D01*
X143287000Y-99330000D02*
X143137000Y-99330000D01*
X144087000Y-98755000D02*
X143287000Y-99330000D01*
X136367000Y-105902000D02*
X135567000Y-106477000D01*
X136517000Y-105902000D02*
X136367000Y-105902000D01*
X136640400Y-105849100D02*
X136657100Y-105805600D01*
X136563600Y-105902000D02*
X136640400Y-105849100D01*
X136517000Y-105902000D02*
X136563600Y-105902000D01*
X137027100Y-104839400D02*
X136657100Y-105805600D01*
X142753600Y-125198700D02*
X147695100Y-125694600D01*
X142473800Y-125221500D02*
X142388600Y-125262100D01*
X142659700Y-125189300D02*
X142473800Y-125221500D01*
X142753600Y-125198700D02*
X142659700Y-125189300D01*
X141351000Y-125755000D02*
X142388600Y-125262100D01*
X153378000Y-134443000D02*
X154528000Y-136093000D01*
X153228000Y-134443000D02*
X153378000Y-134443000D01*
X153181400Y-134443000D02*
X153228000Y-134443000D01*
X153104500Y-134390100D02*
X153181400Y-134443000D01*
X153087900Y-134346500D02*
X153104500Y-134390100D01*
X151611100Y-130479300D02*
X153087900Y-134346500D01*
X151611100Y-130479300D02*
X151605400Y-130464800D01*
X149733000Y-125755000D02*
X151605400Y-130464800D01*
X134347500Y-125569200D02*
X137236000Y-125781000D01*
X134290200Y-125567100D02*
X134271100Y-125567900D01*
X134328400Y-125567800D02*
X134290200Y-125567100D01*
X134347500Y-125569200D02*
X134328400Y-125567800D01*
X129286000Y-125755000D02*
X134271100Y-125567900D01*
X144887000Y-99330000D02*
X144087000Y-98755000D01*
X145037000Y-99330000D02*
X144887000Y-99330000D01*
X145088200Y-99330000D02*
X145037000Y-99330000D01*
X145169100Y-99392500D02*
X145088200Y-99330000D01*
X145182100Y-99442000D02*
X145169100Y-99392500D01*
X145358200Y-100114200D02*
X145182100Y-99442000D01*
X145392800Y-100216600D02*
X145409000Y-100248800D01*
X145367300Y-100149100D02*
X145392800Y-100216600D01*
X145358200Y-100114200D02*
X145367300Y-100149100D01*
X147887700Y-105189400D02*
X145409000Y-100248800D01*
X137755400Y-158089600D02*
X137478100Y-157754300D01*
X137837500Y-158144000D02*
X137871000Y-158144000D01*
X137776800Y-158115400D02*
X137837500Y-158144000D01*
X137755400Y-158089600D02*
X137776800Y-158115400D01*
X138021000Y-158144000D02*
X137871000Y-158144000D01*
X138471000Y-158369000D02*
X138021000Y-158144000D01*
X128186400Y-142887200D02*
X130054700Y-144484300D01*
X128116100Y-142827100D02*
X128186400Y-142887200D01*
X128012100Y-142674200D02*
X128116100Y-142827100D01*
X127982100Y-142586800D02*
X128012100Y-142674200D01*
X126386100Y-137941700D02*
X127982100Y-142586800D01*
X126382100Y-137929900D02*
X126386100Y-137941700D01*
X126378000Y-137905400D02*
X126382100Y-137929900D01*
X126378000Y-137893000D02*
X126378000Y-137905400D01*
X126378000Y-137743000D02*
X126378000Y-137893000D01*
X125228000Y-136093000D02*
X126378000Y-137743000D01*
X136367000Y-98282000D02*
X135567000Y-98857000D01*
X136367000Y-98132000D02*
X136367000Y-98282000D01*
X136367000Y-98087600D02*
X136367000Y-98132000D01*
X136415300Y-98013200D02*
X136367000Y-98087600D01*
X136455800Y-97995100D02*
X136415300Y-98013200D01*
X143100800Y-95025300D02*
X136455800Y-97995100D01*
X143115200Y-95018800D02*
X143100800Y-95025300D01*
X143146200Y-95012200D02*
X143115200Y-95018800D01*
X143162000Y-95012200D02*
X143146200Y-95012200D01*
X143312000Y-95012200D02*
X143162000Y-95012200D01*
X144112000Y-94437200D02*
X143312000Y-95012200D01*
X124078000Y-134443000D02*
X125228000Y-136093000D01*
X124078000Y-134293000D02*
X124078000Y-134443000D01*
X124076700Y-134272400D02*
X124075500Y-134265600D01*
X124078000Y-134286100D02*
X124076700Y-134272400D01*
X124078000Y-134293000D02*
X124078000Y-134286100D01*
X123317300Y-130177900D02*
X124075500Y-134265600D01*
X123278100Y-130019000D02*
X123258900Y-129967800D01*
X123307300Y-130124200D02*
X123278100Y-130019000D01*
X123317300Y-130177900D02*
X123307300Y-130124200D01*
X122807600Y-128766800D02*
X123258900Y-129967800D01*
X122802800Y-128754100D02*
X122807600Y-128766800D01*
X122798000Y-128727500D02*
X122802800Y-128754100D01*
X122798000Y-128714000D02*
X122798000Y-128727500D01*
X122798000Y-128564000D02*
X122798000Y-128714000D01*
X122098000Y-127864000D02*
X122798000Y-128564000D01*
X136517000Y-87250900D02*
X136978300Y-87250900D01*
X136367000Y-87250900D02*
X136517000Y-87250900D01*
X135567000Y-86817200D02*
X136367000Y-87250900D01*
X133242200Y-103625600D02*
X132978400Y-104788700D01*
X133268700Y-103508500D02*
X133242200Y-103625600D01*
X133397900Y-103305900D02*
X133268700Y-103508500D01*
X133492900Y-103232400D02*
X133397900Y-103305900D01*
X134278800Y-102624400D02*
X133492900Y-103232400D01*
X147679700Y-88027700D02*
X146052700Y-89600000D01*
X144912000Y-93862200D02*
X144112000Y-94437200D01*
X145062000Y-93862200D02*
X144912000Y-93862200D01*
X145191600Y-93802700D02*
X145205800Y-93755000D01*
X145111800Y-93862200D02*
X145191600Y-93802700D01*
X145062000Y-93862200D02*
X145111800Y-93862200D01*
X145602100Y-92424800D02*
X145205800Y-93755000D01*
X134767000Y-98502400D02*
X135567000Y-98857000D01*
X134617000Y-98502400D02*
X134767000Y-98502400D01*
X134163400Y-98502400D02*
X134617000Y-98502400D01*
X144887000Y-106950000D02*
X144087000Y-106375000D01*
X144887000Y-107100000D02*
X144887000Y-106950000D01*
X144891800Y-107140100D02*
X144896600Y-107152700D01*
X144887000Y-107113500D02*
X144891800Y-107140100D01*
X144887000Y-107100000D02*
X144887000Y-107113500D01*
X146269700Y-110813400D02*
X144896600Y-107152700D01*
X136517000Y-99432000D02*
X136971000Y-99507000D01*
X136367000Y-99432000D02*
X136517000Y-99432000D01*
X135567000Y-98857000D02*
X136367000Y-99432000D01*
X151319300Y-110680400D02*
X149803100Y-111534800D01*
X145146600Y-105752400D02*
X145602600Y-105264500D01*
X145125300Y-105775200D02*
X145146600Y-105752400D01*
X145068200Y-105800000D02*
X145125300Y-105775200D01*
X145037000Y-105800000D02*
X145068200Y-105800000D01*
X144887000Y-105800000D02*
X145037000Y-105800000D01*
X144087000Y-106375000D02*
X144887000Y-105800000D01*
X148006000Y-146126000D02*
X145923000Y-151765000D01*
X142883200Y-140945600D02*
X143903900Y-141300900D01*
X142660500Y-140903100D02*
X142584900Y-140910900D01*
X142811400Y-140920600D02*
X142660500Y-140903100D01*
X142883200Y-140945600D02*
X142811400Y-140920600D01*
X128634800Y-142362600D02*
X142584900Y-140910900D01*
X148383300Y-125745100D02*
X148006000Y-130886000D01*
X148383300Y-125745100D02*
X148385100Y-125705400D01*
X148543000Y-115576400D02*
X148385100Y-125705400D01*
X148545600Y-115514800D02*
X148543000Y-115576400D01*
X148719600Y-112938600D02*
X148545600Y-115514800D01*
X148718400Y-112819000D02*
X148712000Y-112779600D01*
X148722300Y-112898800D02*
X148718400Y-112819000D01*
X148719600Y-112938600D02*
X148722300Y-112898800D01*
X148471600Y-111324800D02*
X148712000Y-112779600D01*
X151912000Y-93862200D02*
X152712000Y-94437200D01*
X151912000Y-93712200D02*
X151912000Y-93862200D01*
X151902000Y-93654900D02*
X151892300Y-93637900D01*
X151912000Y-93692700D02*
X151902000Y-93654900D01*
X151912000Y-93712200D02*
X151912000Y-93692700D01*
X151423200Y-92815500D02*
X151892300Y-93637900D01*
X151398000Y-92771400D02*
X151423200Y-92815500D01*
X151371900Y-92673000D02*
X151398000Y-92771400D01*
X151371900Y-92622200D02*
X151371900Y-92673000D01*
X151371900Y-91172200D02*
X151371900Y-92622200D01*
X151371900Y-91121400D02*
X151371900Y-91172200D01*
X151398000Y-91023100D02*
X151371900Y-91121400D01*
X151423200Y-90978900D02*
X151398000Y-91023100D01*
X151892300Y-90156500D02*
X151423200Y-90978900D01*
X151912000Y-90101700D02*
X151912000Y-90082200D01*
X151902000Y-90139500D02*
X151912000Y-90101700D01*
X151892300Y-90156500D02*
X151902000Y-90139500D01*
X151912000Y-89932200D02*
X151912000Y-90082200D01*
X152712000Y-89357200D02*
X151912000Y-89932200D01*
X153512000Y-93862200D02*
X152712000Y-94437200D01*
X153662000Y-93862200D02*
X153512000Y-93862200D01*
X153712500Y-93854500D02*
X153727900Y-93846900D01*
X153679100Y-93862200D02*
X153712500Y-93854500D01*
X153662000Y-93862200D02*
X153679100Y-93862200D01*
X154966600Y-93240600D02*
X153727900Y-93846900D01*
X125907200Y-92520100D02*
X125435900Y-93026800D01*
X125928400Y-92497200D02*
X125907200Y-92520100D01*
X125985700Y-92472200D02*
X125928400Y-92497200D01*
X126017000Y-92472200D02*
X125985700Y-92472200D01*
X126167000Y-92472200D02*
X126017000Y-92472200D01*
X126967000Y-91897200D02*
X126167000Y-92472200D01*
X135519600Y-152981000D02*
X141021900Y-154082300D01*
X135470400Y-152971200D02*
X135519600Y-152981000D01*
X135373800Y-152943600D02*
X135470400Y-152971200D01*
X135326800Y-152925900D02*
X135373800Y-152943600D01*
X134125800Y-152474600D02*
X135326800Y-152925900D01*
X134086500Y-152465000D02*
X134073000Y-152465000D01*
X134113100Y-152469800D02*
X134086500Y-152465000D01*
X134125800Y-152474600D02*
X134113100Y-152469800D01*
X133923000Y-152465000D02*
X134073000Y-152465000D01*
X133223000Y-151765000D02*
X133923000Y-152465000D01*
X127767000Y-91322200D02*
X126967000Y-91897200D01*
X127767000Y-91172200D02*
X127767000Y-91322200D01*
X127767000Y-91152700D02*
X127767000Y-91172200D01*
X127777000Y-91114900D02*
X127767000Y-91152700D01*
X127786700Y-91097900D02*
X127777000Y-91114900D01*
X128255800Y-90275500D02*
X127786700Y-91097900D01*
X128307100Y-90133000D02*
X128307100Y-90082200D01*
X128281000Y-90231300D02*
X128307100Y-90133000D01*
X128255800Y-90275500D02*
X128281000Y-90231300D01*
X128307100Y-88632200D02*
X128307100Y-90082200D01*
X128281000Y-88483000D02*
X128255800Y-88438900D01*
X128307100Y-88581400D02*
X128281000Y-88483000D01*
X128307100Y-88632200D02*
X128307100Y-88581400D01*
X127786700Y-87616500D02*
X128255800Y-88438900D01*
X127777000Y-87599500D02*
X127786700Y-87616500D01*
X127767000Y-87561700D02*
X127777000Y-87599500D01*
X127767000Y-87542200D02*
X127767000Y-87561700D01*
X127767000Y-87392200D02*
X127767000Y-87542200D01*
X126967000Y-86817200D02*
X127767000Y-87392200D01*
X127767000Y-99432000D02*
X126967000Y-98857000D01*
X127767000Y-99582000D02*
X127767000Y-99432000D01*
X127777000Y-99639300D02*
X127786700Y-99656300D01*
X127767000Y-99601500D02*
X127777000Y-99639300D01*
X127767000Y-99582000D02*
X127767000Y-99601500D01*
X128255800Y-100478700D02*
X127786700Y-99656300D01*
X128281000Y-100522800D02*
X128255800Y-100478700D01*
X128307100Y-100621200D02*
X128281000Y-100522800D01*
X128307100Y-100672000D02*
X128307100Y-100621200D01*
X128307100Y-102122000D02*
X128307100Y-100672000D01*
X128306800Y-102136800D02*
X128307100Y-102122000D01*
X128288800Y-102612700D02*
X128306800Y-102136800D01*
X128286400Y-102676800D02*
X128288800Y-102612700D01*
X128258000Y-102801900D02*
X128286400Y-102676800D01*
X128232500Y-102860800D02*
X128258000Y-102801900D01*
X128054700Y-103271600D02*
X128232500Y-102860800D01*
X128036800Y-103312700D02*
X128054700Y-103271600D01*
X127961900Y-103362000D02*
X128036800Y-103312700D01*
X127917000Y-103362000D02*
X127961900Y-103362000D01*
X127767000Y-103362000D02*
X127917000Y-103362000D01*
X126967000Y-103937000D02*
X127767000Y-103362000D01*
X126167000Y-103362000D02*
X126967000Y-103937000D01*
X126017000Y-103362000D02*
X126167000Y-103362000D01*
X125999100Y-103362000D02*
X126017000Y-103362000D01*
X125964300Y-103353600D02*
X125999100Y-103362000D01*
X125948400Y-103345400D02*
X125964300Y-103353600D01*
X123914000Y-102300000D02*
X125948400Y-103345400D01*
X153487000Y-101862200D02*
X152687000Y-101295000D01*
X153637000Y-101862200D02*
X153487000Y-101862200D01*
X154807100Y-101862200D02*
X153637000Y-101862200D01*
X153716100Y-95022300D02*
X155329900Y-95645700D01*
X153675900Y-95012200D02*
X153662000Y-95012200D01*
X153703200Y-95017300D02*
X153675900Y-95012200D01*
X153716100Y-95022300D02*
X153703200Y-95017300D01*
X153512000Y-95012200D02*
X153662000Y-95012200D01*
X152712000Y-94437200D02*
X153512000Y-95012200D01*
X126167000Y-98282000D02*
X126967000Y-98857000D01*
X126017000Y-98282000D02*
X126167000Y-98282000D01*
X126000900Y-98282000D02*
X126017000Y-98282000D01*
X125969500Y-98275200D02*
X126000900Y-98282000D01*
X125954900Y-98268500D02*
X125969500Y-98275200D01*
X124911900Y-97794100D02*
X125954900Y-98268500D01*
X140196000Y-132003700D02*
X136859200Y-132820600D01*
X140252500Y-131989900D02*
X140196000Y-132003700D01*
X140368600Y-131982800D02*
X140252500Y-131989900D01*
X140426400Y-131989600D02*
X140368600Y-131982800D01*
X144336400Y-132450100D02*
X140426400Y-131989600D01*
X151912000Y-95012200D02*
X152712000Y-94437200D01*
X151762000Y-95012200D02*
X151912000Y-95012200D01*
X151688100Y-95029200D02*
X151668200Y-95045200D01*
X151736400Y-95012200D02*
X151688100Y-95029200D01*
X151762000Y-95012200D02*
X151736400Y-95012200D01*
X150906000Y-95656500D02*
X151668200Y-95045200D01*
X150890500Y-95668800D02*
X150906000Y-95656500D01*
X150858300Y-95691800D02*
X150890500Y-95668800D01*
X150841500Y-95702300D02*
X150858300Y-95691800D01*
X149457300Y-96572500D02*
X150841500Y-95702300D01*
X153487000Y-105800000D02*
X152687000Y-106375000D01*
X153487000Y-105650000D02*
X153487000Y-105800000D01*
X153487000Y-105630500D02*
X153487000Y-105650000D01*
X153497000Y-105592700D02*
X153487000Y-105630500D01*
X153506700Y-105575700D02*
X153497000Y-105592700D01*
X153975800Y-104753300D02*
X153506700Y-105575700D01*
X154027100Y-104610800D02*
X154027100Y-104560000D01*
X154001000Y-104709100D02*
X154027100Y-104610800D01*
X153975800Y-104753300D02*
X154001000Y-104709100D01*
X154027100Y-103110000D02*
X154027100Y-104560000D01*
X154001000Y-102960800D02*
X153975800Y-102916700D01*
X154027100Y-103059200D02*
X154001000Y-102960800D01*
X154027100Y-103110000D02*
X154027100Y-103059200D01*
X153506700Y-102094300D02*
X153975800Y-102916700D01*
X153497000Y-102077300D02*
X153506700Y-102094300D01*
X153487000Y-102039500D02*
X153497000Y-102077300D01*
X153487000Y-102020000D02*
X153487000Y-102039500D01*
X153487000Y-101870000D02*
X153487000Y-102020000D01*
X152687000Y-101295000D02*
X153487000Y-101870000D01*
X127983200Y-98266600D02*
X130205400Y-97174200D01*
X127967800Y-98274200D02*
X127983200Y-98266600D01*
X127934200Y-98282000D02*
X127967800Y-98274200D01*
X127917000Y-98282000D02*
X127934200Y-98282000D01*
X127767000Y-98282000D02*
X127917000Y-98282000D01*
X126967000Y-98857000D02*
X127767000Y-98282000D01*
X151859000Y-107187200D02*
X151606200Y-107541100D01*
X151887000Y-107123500D02*
X151887000Y-107100000D01*
X151872600Y-107168100D02*
X151887000Y-107123500D01*
X151859000Y-107187200D02*
X151872600Y-107168100D01*
X151887000Y-106950000D02*
X151887000Y-107100000D01*
X152687000Y-106375000D02*
X151887000Y-106950000D01*
D27*
X134717000Y-100772000D02*
X135567000Y-101397000D01*
X134617000Y-100772000D02*
X134717000Y-100772000D01*
X134587700Y-100772000D02*
X134617000Y-100772000D01*
X134538500Y-100740500D02*
X134587700Y-100772000D01*
X134526200Y-100713900D02*
X134538500Y-100740500D01*
X133620700Y-98753000D02*
X134526200Y-100713900D01*
X133533400Y-98564100D02*
X133620700Y-98753000D01*
X133631300Y-98159500D02*
X133533400Y-98564100D01*
X133795300Y-98031300D02*
X133631300Y-98159500D01*
X133801500Y-98026600D02*
X133795300Y-98031300D01*
X133983600Y-97808300D02*
X134009300Y-97716000D01*
X133877000Y-97967600D02*
X133983600Y-97808300D01*
X133801500Y-98026600D02*
X133877000Y-97967600D01*
X134713300Y-95189000D02*
X134009300Y-97716000D01*
X134717000Y-95169000D02*
X134717000Y-95162200D01*
X134715100Y-95182500D02*
X134717000Y-95169000D01*
X134713300Y-95189000D02*
X134715100Y-95182500D01*
X134717000Y-95062200D02*
X134717000Y-95162200D01*
X135567000Y-94437200D02*
X134717000Y-95062200D01*
X136417000Y-94734400D02*
X135567000Y-94437200D01*
X136517000Y-94734400D02*
X136417000Y-94734400D01*
X136995400Y-94734400D02*
X136517000Y-94734400D01*
X136417000Y-102022000D02*
X135567000Y-101397000D01*
X136517000Y-102022000D02*
X136417000Y-102022000D01*
X136547600Y-102022000D02*
X136517000Y-102022000D01*
X136598400Y-102056300D02*
X136547600Y-102022000D01*
X136609800Y-102084700D02*
X136598400Y-102056300D01*
X137621000Y-104600700D02*
X136609800Y-102084700D01*
X137643900Y-104657500D02*
X137621000Y-104600700D01*
X137667200Y-104777800D02*
X137643900Y-104657500D01*
X137667200Y-104839000D02*
X137667200Y-104777800D01*
X137668700Y-107337800D02*
X137667200Y-104839000D01*
X146025800Y-99939300D02*
X146571900Y-91038300D01*
X144962000Y-87442200D02*
X144112000Y-86817200D01*
X145062000Y-87442200D02*
X144962000Y-87442200D01*
X145068100Y-87442200D02*
X145062000Y-87442200D01*
X145080300Y-87443700D02*
X145068100Y-87442200D01*
X145086200Y-87445200D02*
X145080300Y-87443700D01*
X145522000Y-87553700D02*
X145086200Y-87445200D01*
X144937000Y-104431000D02*
X144087000Y-103835000D01*
X145037000Y-104431000D02*
X144937000Y-104431000D01*
X145497100Y-104431000D02*
X145037000Y-104431000D01*
X143237000Y-103654900D02*
X144087000Y-103835000D01*
X143137000Y-103654900D02*
X143237000Y-103654900D01*
X142119100Y-103654900D02*
X143137000Y-103654900D01*
X147213200Y-108061300D02*
X145567500Y-106729500D01*
X147256800Y-108096600D02*
X147213200Y-108061300D01*
X147330300Y-108181200D02*
X147256800Y-108096600D01*
X147359200Y-108229300D02*
X147330300Y-108181200D01*
X149020300Y-110995200D02*
X147359200Y-108229300D01*
X149051600Y-111047300D02*
X149020300Y-110995200D01*
X149093500Y-111161600D02*
X149051600Y-111047300D01*
X149103300Y-111221600D02*
X149093500Y-111161600D01*
X149171400Y-111638000D02*
X149103300Y-111221600D01*
X149194200Y-111734900D02*
X149206200Y-111765900D01*
X149176800Y-111670800D02*
X149194200Y-111734900D01*
X149171400Y-111638000D02*
X149176800Y-111670800D01*
X149657000Y-112930400D02*
X149206200Y-111765900D01*
X145127200Y-103153200D02*
X145341700Y-102705600D01*
X145114700Y-103179200D02*
X145127200Y-103153200D01*
X145065900Y-103210000D02*
X145114700Y-103179200D01*
X145037000Y-103210000D02*
X145065900Y-103210000D01*
X144937000Y-103210000D02*
X145037000Y-103210000D01*
X144087000Y-103835000D02*
X144937000Y-103210000D01*
D26*
X127578000Y-74418000D02*
X127864000Y-79603600D01*
X127578000Y-74168000D02*
X127578000Y-74418000D01*
X136290000Y-74392600D02*
X136601000Y-79603600D01*
X136290000Y-74142600D02*
X136290000Y-74392600D01*
D27*
X134717000Y-91272200D02*
X135567000Y-91897200D01*
X134617000Y-91272200D02*
X134717000Y-91272200D01*
X134582800Y-91272200D02*
X134617000Y-91272200D01*
X134528700Y-91230300D02*
X134582800Y-91272200D01*
X134520200Y-91197200D02*
X134528700Y-91230300D01*
X131521000Y-79603600D02*
X134520200Y-91197200D01*
D26*
X145027000Y-74367200D02*
X145339000Y-79578200D01*
X145027000Y-74117200D02*
X145027000Y-74367200D01*
X153765000Y-74367200D02*
X154076000Y-79552800D01*
X153765000Y-74117200D02*
X153765000Y-74367200D01*
D27*
X144962000Y-88732200D02*
X144112000Y-89357200D01*
X145062000Y-88732200D02*
X144962000Y-88732200D01*
X145112200Y-88720400D02*
X145125600Y-88709400D01*
X145079400Y-88732200D02*
X145112200Y-88720400D01*
X145062000Y-88732200D02*
X145079400Y-88732200D01*
X145928900Y-88047800D02*
X145125600Y-88709400D01*
X146097300Y-87847800D02*
X146126300Y-87764900D01*
X145996700Y-87991900D02*
X146097300Y-87847800D01*
X145928900Y-88047800D02*
X145996700Y-87991900D01*
X148996000Y-79552800D02*
X146126300Y-87764900D01*
X151820000Y-104615800D02*
X151561700Y-104999600D01*
X151837000Y-104574900D02*
X151837000Y-104560000D01*
X151828300Y-104603400D02*
X151837000Y-104574900D01*
X151820000Y-104615800D02*
X151828300Y-104603400D01*
X151837000Y-104460000D02*
X151837000Y-104560000D01*
X152687000Y-103835000D02*
X151837000Y-104460000D01*
X155645900Y-101908800D02*
X154699100Y-102913000D01*
X127599200Y-102122000D02*
X127599200Y-102586600D01*
X127599200Y-102022000D02*
X127599200Y-102122000D01*
X126967000Y-101397000D02*
X127599200Y-102022000D01*
X127603600Y-107907200D02*
X134175900Y-122401800D01*
X134297000Y-126257500D02*
X132766000Y-130886000D01*
X130337800Y-115155200D02*
X133648500Y-123072600D01*
X130264200Y-115006900D02*
X130233500Y-114960900D01*
X130316500Y-115104200D02*
X130264200Y-115006900D01*
X130337800Y-115155200D02*
X130316500Y-115104200D01*
X126843200Y-109895100D02*
X130233500Y-114960900D01*
X126840700Y-109891500D02*
X126843200Y-109895100D01*
X125003300Y-107186000D02*
X126840700Y-109891500D01*
X153562000Y-91272200D02*
X152712000Y-91897200D01*
X153662000Y-91272200D02*
X153562000Y-91272200D01*
X153751800Y-91228400D02*
X153759500Y-91194200D01*
X153697100Y-91272200D02*
X153751800Y-91228400D01*
X153662000Y-91272200D02*
X153697100Y-91272200D01*
X153993700Y-90157100D02*
X153759500Y-91194200D01*
X154002100Y-90101100D02*
X154002100Y-90082200D01*
X153997900Y-90138700D02*
X154002100Y-90101100D01*
X153993700Y-90157100D02*
X153997900Y-90138700D01*
X154002100Y-88632200D02*
X154002100Y-90082200D01*
X153987500Y-88527300D02*
X153973100Y-88494900D01*
X154002100Y-88596700D02*
X153987500Y-88527300D01*
X154002100Y-88632200D02*
X154002100Y-88596700D01*
X153570500Y-87582600D02*
X153973100Y-88494900D01*
X153566300Y-87573000D02*
X153570500Y-87582600D01*
X153562000Y-87552600D02*
X153566300Y-87573000D01*
X153562000Y-87542200D02*
X153562000Y-87552600D01*
X153562000Y-87442200D02*
X153562000Y-87542200D01*
X152712000Y-86817200D02*
X153562000Y-87442200D01*
X155604100Y-93298600D02*
X155467400Y-94800600D01*
X155275100Y-92617600D02*
X155004500Y-92601600D01*
X155628700Y-93028600D02*
X155275100Y-92617600D01*
X155604100Y-93298600D02*
X155628700Y-93028600D01*
X153667900Y-92522400D02*
X155004500Y-92601600D01*
X153662000Y-92522200D02*
X153667900Y-92522400D01*
X153562000Y-92522200D02*
X153662000Y-92522200D01*
X152712000Y-91897200D02*
X153562000Y-92522200D01*
X150474200Y-95118100D02*
X149335500Y-95727100D01*
X127958300Y-95071100D02*
X133433400Y-97555500D01*
X127927700Y-95062200D02*
X127917000Y-95062200D01*
X127948600Y-95066700D02*
X127927700Y-95062200D01*
X127958300Y-95071100D02*
X127948600Y-95066700D01*
X127817000Y-95062200D02*
X127917000Y-95062200D01*
X126967000Y-94437200D02*
X127817000Y-95062200D01*
X126117000Y-93812200D02*
X126967000Y-94437200D01*
X126017000Y-93812200D02*
X126117000Y-93812200D01*
X126011400Y-93812200D02*
X126017000Y-93812200D01*
X126000300Y-93810900D02*
X126011400Y-93812200D01*
X125994900Y-93809700D02*
X126000300Y-93810900D01*
X125294500Y-93651100D02*
X125994900Y-93809700D01*
X124994500Y-93583100D02*
X125294500Y-93651100D01*
X124725700Y-93029600D02*
X124994500Y-93583100D01*
X124857900Y-92751800D02*
X124725700Y-93029600D01*
X126107300Y-90125200D02*
X124857900Y-92751800D01*
X126117000Y-90093400D02*
X126117000Y-90082200D01*
X126112100Y-90115100D02*
X126117000Y-90093400D01*
X126107300Y-90125200D02*
X126112100Y-90115100D01*
X126117000Y-89982200D02*
X126117000Y-90082200D01*
X126967000Y-89357200D02*
X126117000Y-89982200D01*
X140809700Y-128679000D02*
X142926000Y-130886000D01*
X140709300Y-128592000D02*
X140671000Y-128569500D01*
X140779000Y-128647000D02*
X140709300Y-128592000D01*
X140809700Y-128679000D02*
X140779000Y-128647000D01*
X140661100Y-128563800D02*
X140671000Y-128569500D01*
X140552500Y-128500100D02*
X140661100Y-128563800D01*
X140399500Y-128300100D02*
X140552500Y-128500100D01*
X140366600Y-128178600D02*
X140399500Y-128300100D01*
X138612500Y-121701900D02*
X140366600Y-128178600D01*
X138593700Y-121632700D02*
X138612500Y-121701900D01*
X138587800Y-121489500D02*
X138593700Y-121632700D01*
X138600700Y-121419000D02*
X138587800Y-121489500D01*
X138931700Y-119615900D02*
X138600700Y-121419000D01*
X138943100Y-119460300D02*
X138935600Y-119408700D01*
X138941100Y-119564600D02*
X138943100Y-119460300D01*
X138931700Y-119615900D02*
X138941100Y-119564600D01*
X138364400Y-115457900D02*
X138935600Y-119408700D01*
X138276200Y-115141500D02*
X138220800Y-115046600D01*
X138348700Y-115349100D02*
X138276200Y-115141500D01*
X138364400Y-115457900D02*
X138348700Y-115349100D01*
X132425500Y-105111200D02*
X138220800Y-115046600D01*
X132373000Y-105021200D02*
X132425500Y-105111200D01*
X132330500Y-104817200D02*
X132373000Y-105021200D01*
X132342700Y-104713700D02*
X132330500Y-104817200D01*
X133090600Y-98375800D02*
X132342700Y-104713700D01*
X133101800Y-98280700D02*
X133090600Y-98375800D01*
X133157400Y-98097500D02*
X133101800Y-98280700D01*
X133200800Y-98012200D02*
X133157400Y-98097500D01*
X133433400Y-97555500D02*
X133200800Y-98012200D01*
X138074700Y-118968300D02*
X138302100Y-119500300D01*
X138054200Y-118927300D02*
X138045700Y-118914500D01*
X138068700Y-118954200D02*
X138054200Y-118927300D01*
X138074700Y-118968300D02*
X138068700Y-118954200D01*
X136284800Y-116249500D02*
X138045700Y-118914500D01*
X136252100Y-116197000D02*
X136284800Y-116249500D01*
X129604800Y-104842200D02*
X136252100Y-116197000D01*
X142684700Y-125885400D02*
X145466000Y-130886000D01*
X143383000Y-151765000D02*
X132766000Y-146126000D01*
X140843000Y-151765000D02*
X130226000Y-146126000D01*
X134265200Y-150634400D02*
X127686000Y-146126000D01*
X134278000Y-150643600D02*
X134265200Y-150634400D01*
X135763000Y-151765000D02*
X134278000Y-150643600D01*
X144803800Y-142241400D02*
X146876000Y-143226000D01*
X144680500Y-142190800D02*
X144637800Y-142178500D01*
X144763600Y-142222300D02*
X144680500Y-142190800D01*
X144803800Y-142241400D02*
X144763600Y-142222300D01*
X143726700Y-141916000D02*
X144637800Y-142178500D01*
X143721200Y-141914400D02*
X143726700Y-141916000D01*
X142656300Y-141597300D02*
X143721200Y-141914400D01*
X133985100Y-134209800D02*
X140350400Y-132634600D01*
X140575000Y-133234000D02*
X141068900Y-133048900D01*
X140557600Y-133240600D02*
X140575000Y-133234000D01*
X140522200Y-133251500D02*
X140557600Y-133240600D01*
X140504200Y-133256000D02*
X140522200Y-133251500D01*
X134138900Y-134831200D02*
X140504200Y-133256000D01*
X134085100Y-134844400D02*
X134138900Y-134831200D01*
X133974600Y-134852200D02*
X134085100Y-134844400D01*
X133919500Y-134846500D02*
X133974600Y-134852200D01*
X131515800Y-134599000D02*
X133919500Y-134846500D01*
X141178100Y-130137100D02*
X141658300Y-130645000D01*
X140749000Y-129843300D02*
X140576400Y-129812700D01*
X141057700Y-130009700D02*
X140749000Y-129843300D01*
X141178100Y-130137100D02*
X141057700Y-130009700D01*
X140235900Y-129752300D02*
X140576400Y-129812700D01*
X140067300Y-129722300D02*
X140235900Y-129752300D01*
X139804900Y-129502000D02*
X140067300Y-129722300D01*
X139746300Y-129341100D02*
X139804900Y-129502000D01*
X138307200Y-125390800D02*
X139746300Y-129341100D01*
X137783900Y-124741200D02*
X137506400Y-124673400D01*
X138209400Y-125122400D02*
X137783900Y-124741200D01*
X138307200Y-125390800D02*
X138209400Y-125122400D01*
X133496700Y-123694400D02*
X137506400Y-124673400D01*
X133411200Y-123673500D02*
X133496700Y-123694400D01*
X133257700Y-123587100D02*
X133411200Y-123673500D01*
X133195500Y-123524800D02*
X133257700Y-123587100D01*
X129857800Y-120181400D02*
X133195500Y-123524800D01*
X129806900Y-120152000D02*
X129787000Y-120152000D01*
X129843700Y-120167300D02*
X129806900Y-120152000D01*
X129857800Y-120181400D02*
X129843700Y-120167300D01*
X129687000Y-120152000D02*
X129787000Y-120152000D01*
X129337000Y-119652000D02*
X129687000Y-120152000D01*
X140028100Y-128513700D02*
X140347700Y-129122000D01*
X140014500Y-128487700D02*
X140028100Y-128513700D01*
X139990100Y-128434300D02*
X140014500Y-128487700D01*
X139979300Y-128407000D02*
X139990100Y-128434300D01*
X137669000Y-122538600D02*
X139979300Y-128407000D01*
X137665500Y-122529900D02*
X137669000Y-122538600D01*
X137662000Y-122511400D02*
X137665500Y-122529900D01*
X137662000Y-122502000D02*
X137662000Y-122511400D01*
X137662000Y-122402000D02*
X137662000Y-122502000D01*
X137312000Y-121902000D02*
X137662000Y-122402000D01*
X140284400Y-126157800D02*
X140984400Y-128011300D01*
X140238700Y-126036700D02*
X140284400Y-126157800D01*
X140203800Y-125780200D02*
X140238700Y-126036700D01*
X140215600Y-125651300D02*
X140203800Y-125780200D01*
X140613300Y-121297100D02*
X140215600Y-125651300D01*
X140616100Y-121266100D02*
X140613300Y-121297100D01*
X140632900Y-121206200D02*
X140616100Y-121266100D01*
X140646600Y-121178300D02*
X140632900Y-121206200D01*
X141041800Y-120372000D02*
X140646600Y-121178300D01*
X141052000Y-120339400D02*
X141052000Y-120328000D01*
X141046800Y-120361700D02*
X141052000Y-120339400D01*
X141041800Y-120372000D02*
X141046800Y-120361700D01*
X141052000Y-120228000D02*
X141052000Y-120328000D01*
X141402000Y-119728000D02*
X141052000Y-120228000D01*
X149352000Y-120700800D02*
X149352000Y-121343000D01*
X149352000Y-121343000D02*
X149708000Y-121699000D01*
X145657300Y-136211000D02*
X142683200Y-138845600D01*
D26*
X134767000Y-88782200D02*
X135567000Y-89357200D01*
X134617000Y-88782200D02*
X134767000Y-88782200D01*
X134564400Y-88782200D02*
X134617000Y-88782200D01*
X134482300Y-88716500D02*
X134564400Y-88782200D01*
X134470700Y-88665200D02*
X134482300Y-88716500D01*
X134236500Y-87628100D02*
X134470700Y-88665200D01*
X134231700Y-87607000D02*
X134236500Y-87628100D01*
X134226900Y-87563900D02*
X134231700Y-87607000D01*
X134226900Y-87542200D02*
X134226900Y-87563900D01*
X134226900Y-74992600D02*
X134226900Y-87542200D01*
X134226900Y-74842600D02*
X134226900Y-74992600D01*
X134290000Y-74142600D02*
X134226900Y-74842600D01*
X144912000Y-91322200D02*
X144112000Y-91897200D01*
X144912000Y-91172200D02*
X144912000Y-91322200D01*
X144912000Y-91152700D02*
X144912000Y-91172200D01*
X144922000Y-91114900D02*
X144912000Y-91152700D01*
X144931700Y-91097900D02*
X144922000Y-91114900D01*
X145400800Y-90275500D02*
X144931700Y-91097900D01*
X145455900Y-90106400D02*
X145450500Y-90046700D01*
X145430500Y-90223500D02*
X145455900Y-90106400D01*
X145400800Y-90275500D02*
X145430500Y-90223500D01*
X145441400Y-89947500D02*
X145450500Y-90046700D01*
X145440700Y-89940800D02*
X145441400Y-89947500D01*
X145411100Y-89670200D02*
X145440700Y-89940800D01*
X145396000Y-89531400D02*
X145411100Y-89670200D01*
X145483100Y-89266000D02*
X145396000Y-89531400D01*
X145577600Y-89163200D02*
X145483100Y-89266000D01*
X146354000Y-88318600D02*
X145577600Y-89163200D01*
X146498000Y-88129100D02*
X146533500Y-88057900D01*
X146407800Y-88260100D02*
X146498000Y-88129100D01*
X146354000Y-88318600D02*
X146407800Y-88260100D01*
X150419100Y-80262100D02*
X146533500Y-88057900D01*
X150548400Y-79918100D02*
X150567300Y-79796700D01*
X150473900Y-80152200D02*
X150548400Y-79918100D01*
X150419100Y-80262100D02*
X150473900Y-80152200D01*
X151313200Y-74990200D02*
X150567300Y-79796700D01*
X151315000Y-74973000D02*
X151315000Y-74967200D01*
X151314100Y-74984500D02*
X151315000Y-74973000D01*
X151313200Y-74990200D02*
X151314100Y-74984500D01*
X151315000Y-74817200D02*
X151315000Y-74967200D01*
X151765000Y-74117200D02*
X151315000Y-74817200D01*
D27*
X128555000Y-120325900D02*
X126311200Y-110251100D01*
X128572700Y-120383600D02*
X128581600Y-120401700D01*
X128559400Y-120345600D02*
X128572700Y-120383600D01*
X128555000Y-120325900D02*
X128559400Y-120345600D01*
X128976800Y-121208000D02*
X128581600Y-120401700D01*
X128981800Y-121218300D02*
X128976800Y-121208000D01*
X128987000Y-121240600D02*
X128981800Y-121218300D01*
X128987000Y-121252000D02*
X128987000Y-121240600D01*
X128987000Y-121352000D02*
X128987000Y-121252000D01*
X129337000Y-121852000D02*
X128987000Y-121352000D01*
X129101600Y-104446600D02*
X130553200Y-102600200D01*
X128996700Y-104630200D02*
X128980900Y-104699300D01*
X129057800Y-104502300D02*
X128996700Y-104630200D01*
X129101600Y-104446600D02*
X129057800Y-104502300D01*
X128501800Y-106790800D02*
X128980900Y-104699300D01*
X127817000Y-107102000D02*
X126967000Y-106477000D01*
X127817000Y-107202000D02*
X127817000Y-107102000D01*
X127835400Y-107263900D02*
X127852200Y-107278100D01*
X127817000Y-107224000D02*
X127835400Y-107263900D01*
X127817000Y-107202000D02*
X127817000Y-107224000D01*
X128018600Y-107419800D02*
X127852200Y-107278100D01*
X128044400Y-107441800D02*
X128018600Y-107419800D01*
X128091100Y-107491000D02*
X128044400Y-107441800D01*
X128111700Y-107517900D02*
X128091100Y-107491000D01*
X136941400Y-119041200D02*
X128111700Y-107517900D01*
X136951400Y-119054300D02*
X136941400Y-119041200D01*
X136962000Y-119085500D02*
X136951400Y-119054300D01*
X136962000Y-119102000D02*
X136962000Y-119085500D01*
X136962000Y-119202000D02*
X136962000Y-119102000D01*
X137312000Y-119702000D02*
X136962000Y-119202000D01*
X134717000Y-104562000D02*
X135567000Y-103937000D01*
X134717000Y-104662000D02*
X134717000Y-104562000D01*
X134717000Y-104683500D02*
X134717000Y-104662000D01*
X134699400Y-104722700D02*
X134717000Y-104683500D01*
X134683300Y-104736900D02*
X134699400Y-104722700D01*
X134346900Y-105034500D02*
X134683300Y-104736900D01*
X152132500Y-111391400D02*
X154512700Y-108668900D01*
X152112200Y-111414700D02*
X152132500Y-111391400D01*
X152069000Y-111458700D02*
X152112200Y-111414700D01*
X152046200Y-111479500D02*
X152069000Y-111458700D01*
X150877100Y-112542900D02*
X152046200Y-111479500D01*
X141922300Y-121399100D02*
X143607200Y-119732400D01*
X141908300Y-121413000D02*
X141922300Y-121399100D01*
X141871700Y-121428000D02*
X141908300Y-121413000D01*
X141852000Y-121428000D02*
X141871700Y-121428000D01*
X141752000Y-121428000D02*
X141852000Y-121428000D01*
X141402000Y-121928000D02*
X141752000Y-121428000D01*
X148031100Y-112892100D02*
X146810500Y-108558900D01*
X150545700Y-117001200D02*
X150545700Y-118661300D01*
X151647200Y-99423800D02*
X151639500Y-99458000D01*
X151701900Y-99380000D02*
X151647200Y-99423800D01*
X151737000Y-99380000D02*
X151701900Y-99380000D01*
X151405300Y-100495100D02*
X151639500Y-99458000D01*
X151399900Y-100523900D02*
X151398900Y-100533600D01*
X151403100Y-100504600D02*
X151399900Y-100523900D01*
X151405300Y-100495100D02*
X151403100Y-100504600D01*
X150925300Y-104931100D02*
X151398900Y-100533600D01*
X150921400Y-104990800D02*
X150921700Y-105010800D01*
X150923200Y-104950900D02*
X150921400Y-104990800D01*
X150925300Y-104931100D02*
X150923200Y-104950900D01*
X150966200Y-107552300D02*
X150921700Y-105010800D01*
X150984100Y-107699700D02*
X151000000Y-107746700D01*
X150967100Y-107601900D02*
X150984100Y-107699700D01*
X150966200Y-107552300D02*
X150967100Y-107601900D01*
X151925500Y-110474800D02*
X151000000Y-107746700D01*
X151994300Y-110677800D02*
X151925500Y-110474800D01*
X151859700Y-111084900D02*
X151994300Y-110677800D01*
X151683400Y-111206800D02*
X151859700Y-111084900D01*
X150513000Y-112016500D02*
X151683400Y-111206800D01*
X150203200Y-112535700D02*
X150267000Y-112736700D01*
X150339500Y-112136500D02*
X150203200Y-112535700D01*
X150513000Y-112016500D02*
X150339500Y-112136500D01*
X150267100Y-112736600D02*
X150267000Y-112736700D01*
X150271500Y-112750400D02*
X150267100Y-112736600D01*
X150279000Y-112778400D02*
X150271500Y-112750400D01*
X150282100Y-112792500D02*
X150279000Y-112778400D01*
X150846300Y-115349300D02*
X150282100Y-112792500D01*
X150875400Y-115481100D02*
X150846300Y-115349300D01*
X150870400Y-115751000D02*
X150875400Y-115481100D01*
X150836500Y-115881600D02*
X150870400Y-115751000D01*
X150545700Y-117001200D02*
X150836500Y-115881600D01*
X150545700Y-118661300D02*
X149708000Y-119499000D01*
X151837000Y-99380000D02*
X152687000Y-98755000D01*
X151737000Y-99380000D02*
X151837000Y-99380000D01*
X144937000Y-101920000D02*
X144087000Y-101295000D01*
X145037000Y-101920000D02*
X144937000Y-101920000D01*
X145045700Y-101920000D02*
X145037000Y-101920000D01*
X145063000Y-101923000D02*
X145045700Y-101920000D01*
X145071200Y-101926000D02*
X145063000Y-101923000D01*
X145560600Y-102104100D02*
X145071200Y-101926000D01*
X145681300Y-102148100D02*
X145560600Y-102104100D01*
X145870100Y-102322200D02*
X145681300Y-102148100D01*
X145923600Y-102439000D02*
X145870100Y-102322200D01*
X147305800Y-105456000D02*
X145923600Y-102439000D01*
X147354200Y-105544600D02*
X147374300Y-105571700D01*
X147319800Y-105486600D02*
X147354200Y-105544600D01*
X147305800Y-105456000D02*
X147319800Y-105486600D01*
X150315400Y-109521400D02*
X147374300Y-105571700D01*
M02*
