M48
;DRILL file {KiCad 4.0.7} date 06/26/18 02:26:01
;FORMAT={3:3/ absolute / metric / suppress leading zeros}
FMAT,2
METRIC,TZ
T1C0.400
T2C0.750
T3C0.800
T4C1.000
T5C1.200
T6C2.200
%
G90
G05
M71
T1
X123914Y-102300
X124912Y-97794
X125003Y-107186
X125436Y-93027
X126311Y-110251
X127599Y-102587
X127604Y-107907
X128502Y-106791
X128635Y-142363
X129605Y-104842
X130055Y-144484
X130205Y-97174
X130553Y-102600
X131516Y-134599
X132978Y-104789
X133433Y-97556
X133649Y-123073
X133915Y-103778
X133985Y-134210
X134163Y-98502
X134176Y-122402
X134279Y-102624
X134297Y-126257
X134347Y-105035
X136859Y-132821
X136971Y-99507
X136978Y-87251
X136995Y-94734
X137027Y-104839
X137478Y-157754
X137669Y-107338
X138183Y-103786
X138302Y-119500
X139230Y-121535
X139882Y-157532
X140348Y-129122
X140350Y-132635
X140984Y-128011
X141022Y-154082
X141069Y-133049
X141658Y-130645
X142119Y-103655
X142656Y-141597
X142683Y-138846
X142685Y-125885
X143269Y-155229
X143607Y-119732
X143904Y-141301
X144336Y-132450
X145342Y-102706
X145497Y-104431
X145522Y-87554
X145568Y-106730
X145602Y-92425
X145603Y-105265
X145657Y-136211
X146026Y-99939
X146053Y-89600
X146270Y-110813
X146572Y-91038
X146811Y-108559
X147680Y-88028
X147695Y-125695
X147888Y-105189
X148031Y-112892
X148472Y-111325
X149336Y-95727
X149352Y-120701
X149457Y-96573
X149657Y-112930
X149803Y-111535
X150315Y-109521
X150474Y-95118
X150877Y-112543
X151319Y-110680
X151562Y-105000
X151606Y-107541
X154513Y-108669
X154699Y-102913
X154807Y-101862
X154967Y-93241
X155330Y-95646
X155467Y-94801
X155646Y-101909
T2
X125578Y-74168
X127578Y-74168
X134290Y-74143
X136290Y-74143
X143027Y-74117
X145027Y-74117
X151765Y-74117
X153765Y-74117
T3
X129286Y-115595
X129286Y-125755
X137236Y-115621
X137236Y-125781
X141351Y-115595
X141351Y-125755
X149733Y-115595
X149733Y-125755
T4
X122098Y-127864
X122098Y-130404
X122098Y-141961
X122098Y-144501
X127686Y-130886
X127686Y-146126
X130226Y-130886
X130226Y-146126
X132766Y-130886
X132766Y-146126
X133223Y-151765
X133906Y-143226
X135306Y-130886
X135306Y-146126
X135763Y-151765
X136446Y-143226
X137846Y-130886
X137846Y-146126
X138303Y-151765
X140386Y-130886
X140386Y-146126
X140843Y-151765
X142926Y-130886
X142926Y-146126
X143383Y-151765
X144336Y-143226
X145466Y-130886
X145466Y-146126
X145923Y-151765
X146876Y-143226
X148006Y-130886
X148006Y-146126
T5
X122784Y-79604
X127864Y-79604
X131521Y-79604
X136601Y-79604
X140259Y-79578
X145339Y-79578
X148996Y-79553
X154076Y-79553
T6
X124282Y-121361
X124739Y-151714
X154737Y-151714
X154762Y-121717
T0
M30
