G04 #@! TF.FileFunction,Soldermask,Top*
%FSLAX46Y46*%
G04 Gerber Fmt 4.6, Leading zero omitted, Abs format (unit mm)*
G04 Created by KiCad (PCBNEW 4.0.7) date 06/26/18 02:25:57*
%MOMM*%
%LPD*%
G01*
G04 APERTURE LIST*
%ADD10C,0.150000*%
%ADD11R,3.400000X2.000000*%
%ADD12R,1.150000X1.600000*%
%ADD13R,2.000000X3.400000*%
%ADD14R,1.600000X1.300000*%
%ADD15C,2.800000*%
%ADD16O,2.800000X2.800000*%
%ADD17C,1.900000*%
%ADD18R,0.850000X1.875000*%
%ADD19R,2.100000X2.100000*%
%ADD20O,2.100000X2.100000*%
%ADD21R,1.600000X2.100000*%
%ADD22O,1.600000X2.100000*%
%ADD23R,2.300000X1.850000*%
%ADD24C,2.000000*%
%ADD25O,2.000000X2.000000*%
%ADD26R,1.600000X1.050000*%
%ADD27R,1.300000X1.600000*%
%ADD28C,4.800000*%
G04 APERTURE END LIST*
D10*
D11*
X141773000Y-156489000D03*
X137373000Y-156489000D03*
D12*
X145771000Y-154396000D03*
X145771000Y-156296000D03*
X147066000Y-154396000D03*
X147066000Y-156296000D03*
D13*
X135687000Y-105197000D03*
X135687000Y-100797000D03*
D12*
X139167000Y-104099000D03*
X139167000Y-102199000D03*
D13*
X135738000Y-93284400D03*
X135738000Y-88884400D03*
X143967000Y-93259000D03*
X143967000Y-88859000D03*
D12*
X140487000Y-91805800D03*
X140487000Y-89905800D03*
D13*
X143967000Y-105121000D03*
X143967000Y-100721000D03*
D12*
X140513000Y-104099000D03*
X140513000Y-102199000D03*
D14*
X129261000Y-110542000D03*
X129261000Y-113842000D03*
X137236000Y-110567000D03*
X137236000Y-113867000D03*
X141402000Y-110542000D03*
X141402000Y-113842000D03*
X149733000Y-113842000D03*
X149733000Y-110542000D03*
D15*
X127864000Y-79603600D03*
D16*
X122784000Y-79603600D03*
D15*
X136601000Y-79603600D03*
D16*
X131521000Y-79603600D03*
D15*
X145339000Y-79578200D03*
D16*
X140259000Y-79578200D03*
D15*
X154076000Y-79552800D03*
D16*
X148996000Y-79552800D03*
D17*
X127686000Y-130886000D03*
X130226000Y-130886000D03*
X132766000Y-130886000D03*
X135306000Y-130886000D03*
X137846000Y-130886000D03*
X140386000Y-130886000D03*
X142926000Y-130886000D03*
X145466000Y-130886000D03*
X148006000Y-130886000D03*
X148006000Y-146126000D03*
X145466000Y-146126000D03*
X142926000Y-146126000D03*
X140386000Y-146126000D03*
X137846000Y-146126000D03*
X135306000Y-146126000D03*
X132766000Y-146126000D03*
X130226000Y-146126000D03*
X127686000Y-146126000D03*
X133906000Y-143226000D03*
X136446000Y-143226000D03*
X144336000Y-143226000D03*
X146876000Y-143226000D03*
D18*
X143544000Y-134247000D03*
X142894000Y-134247000D03*
X142244000Y-134247000D03*
X141594000Y-134247000D03*
X140944000Y-134247000D03*
X140294000Y-134247000D03*
X139644000Y-134247000D03*
X138994000Y-134247000D03*
X138344000Y-134247000D03*
X137694000Y-134247000D03*
X137044000Y-134247000D03*
X136394000Y-134247000D03*
X135744000Y-134247000D03*
X135094000Y-134247000D03*
X135094000Y-140123000D03*
X135744000Y-140123000D03*
X136394000Y-140123000D03*
X137044000Y-140123000D03*
X137694000Y-140123000D03*
X138344000Y-140123000D03*
X138994000Y-140123000D03*
X139644000Y-140123000D03*
X140294000Y-140123000D03*
X140944000Y-140123000D03*
X141594000Y-140123000D03*
X142244000Y-140123000D03*
X142894000Y-140123000D03*
X143544000Y-140123000D03*
D19*
X133223000Y-151765000D03*
D20*
X135763000Y-151765000D03*
X138303000Y-151765000D03*
X140843000Y-151765000D03*
X143383000Y-151765000D03*
X145923000Y-151765000D03*
D19*
X122098000Y-127864000D03*
D20*
X122098000Y-130404000D03*
D19*
X122098000Y-141961000D03*
D20*
X122098000Y-144501000D03*
D21*
X125578000Y-74168000D03*
D22*
X127578000Y-74168000D03*
D21*
X134290000Y-74142600D03*
D22*
X136290000Y-74142600D03*
D21*
X143027000Y-74117200D03*
D22*
X145027000Y-74117200D03*
D21*
X151765000Y-74117200D03*
D22*
X153765000Y-74117200D03*
D23*
X122548000Y-86791800D03*
X122548000Y-89331800D03*
X122548000Y-91871800D03*
X122548000Y-94411800D03*
X131148000Y-94411800D03*
X131148000Y-91871800D03*
X131148000Y-89331800D03*
X131148000Y-86791800D03*
X122522000Y-98882000D03*
X122522000Y-101422000D03*
X122522000Y-103962000D03*
X122522000Y-106502000D03*
X131122000Y-106502000D03*
X131122000Y-103962000D03*
X131122000Y-101422000D03*
X131122000Y-98882000D03*
X157056000Y-94462600D03*
X157056000Y-91922600D03*
X157056000Y-89382600D03*
X157056000Y-86842600D03*
X148456000Y-86842600D03*
X148456000Y-89382600D03*
X148456000Y-91922600D03*
X148456000Y-94462600D03*
X157056000Y-106375000D03*
X157056000Y-103835000D03*
X157056000Y-101295000D03*
X157056000Y-98755000D03*
X148456000Y-98755000D03*
X148456000Y-101295000D03*
X148456000Y-103835000D03*
X148456000Y-106375000D03*
D24*
X129286000Y-115595000D03*
D25*
X129286000Y-125755000D03*
D24*
X137236000Y-115621000D03*
D25*
X137236000Y-125781000D03*
D24*
X141351000Y-115595000D03*
D25*
X141351000Y-125755000D03*
D24*
X149733000Y-115595000D03*
D25*
X149733000Y-125755000D03*
D26*
X125163000Y-113061000D03*
X125163000Y-114981000D03*
X127263000Y-114021000D03*
X133519000Y-113162000D03*
X133519000Y-115082000D03*
X135619000Y-114122000D03*
X145500000Y-114981000D03*
X145500000Y-113061000D03*
X143400000Y-114021000D03*
X153831000Y-114955000D03*
X153831000Y-113035000D03*
X151731000Y-113995000D03*
D27*
X146609000Y-133114000D03*
X146609000Y-135314000D03*
X148082000Y-133114000D03*
X148082000Y-135314000D03*
X149555000Y-133114000D03*
X149555000Y-135314000D03*
D14*
X130310000Y-140081000D03*
X128110000Y-140081000D03*
X130310000Y-138659000D03*
X128110000Y-138659000D03*
X130310000Y-137236000D03*
X128110000Y-137236000D03*
X130284000Y-135788000D03*
X128084000Y-135788000D03*
X130284000Y-134417000D03*
X128084000Y-134417000D03*
X124900000Y-96647000D03*
X122700000Y-96647000D03*
D27*
X123419000Y-114867000D03*
X123419000Y-112667000D03*
D14*
X133459000Y-96647000D03*
X131259000Y-96647000D03*
D27*
X131978000Y-115095000D03*
X131978000Y-112895000D03*
D14*
X146195000Y-96596200D03*
X148395000Y-96596200D03*
D27*
X147041000Y-112717000D03*
X147041000Y-114917000D03*
D14*
X154881000Y-96596200D03*
X157081000Y-96596200D03*
D27*
X155397000Y-112667000D03*
X155397000Y-114867000D03*
D12*
X139116000Y-91805800D03*
X139116000Y-89905800D03*
D28*
X124739000Y-151714000D03*
X154737000Y-151714000D03*
X124282000Y-121361000D03*
X154762000Y-121717000D03*
M02*
