G04 #@! TF.FileFunction,Copper,L1,Top,Signal*
%FSLAX46Y46*%
G04 Gerber Fmt 4.6, Leading zero omitted, Abs format (unit mm)*
G04 Created by KiCad (PCBNEW 4.0.7) date 06/26/18 02:25:57*
%MOMM*%
%LPD*%
G01*
G04 APERTURE LIST*
%ADD10C,0.150000*%
%ADD11R,3.000000X1.600000*%
%ADD12R,0.750000X1.200000*%
%ADD13R,1.600000X3.000000*%
%ADD14R,1.200000X0.900000*%
%ADD15C,2.400000*%
%ADD16O,2.400000X2.400000*%
%ADD17C,1.500000*%
%ADD18R,0.450000X1.475000*%
%ADD19R,1.700000X1.700000*%
%ADD20O,1.700000X1.700000*%
%ADD21R,1.200000X1.700000*%
%ADD22O,1.200000X1.700000*%
%ADD23R,1.900000X1.450000*%
%ADD24C,1.600000*%
%ADD25O,1.600000X1.600000*%
%ADD26R,1.200000X0.650000*%
%ADD27R,0.900000X1.200000*%
%ADD28C,4.400000*%
%ADD29C,0.600000*%
%ADD30C,0.300000*%
%ADD31C,0.200000*%
G04 APERTURE END LIST*
D10*
D11*
X141773000Y-156489000D03*
X137373000Y-156489000D03*
D12*
X145771000Y-154396000D03*
X145771000Y-156296000D03*
X147066000Y-154396000D03*
X147066000Y-156296000D03*
D13*
X135687000Y-105197000D03*
X135687000Y-100797000D03*
D12*
X139167000Y-104099000D03*
X139167000Y-102199000D03*
D13*
X135738000Y-93284400D03*
X135738000Y-88884400D03*
X143967000Y-93259000D03*
X143967000Y-88859000D03*
D12*
X140487000Y-91805800D03*
X140487000Y-89905800D03*
D13*
X143967000Y-105121000D03*
X143967000Y-100721000D03*
D12*
X140513000Y-104099000D03*
X140513000Y-102199000D03*
D14*
X129261000Y-110542000D03*
X129261000Y-113842000D03*
X137236000Y-110567000D03*
X137236000Y-113867000D03*
X141402000Y-110542000D03*
X141402000Y-113842000D03*
X149733000Y-113842000D03*
X149733000Y-110542000D03*
D15*
X127864000Y-79603600D03*
D16*
X122784000Y-79603600D03*
D15*
X136601000Y-79603600D03*
D16*
X131521000Y-79603600D03*
D15*
X145339000Y-79578200D03*
D16*
X140259000Y-79578200D03*
D15*
X154076000Y-79552800D03*
D16*
X148996000Y-79552800D03*
D17*
X127686000Y-130886000D03*
X130226000Y-130886000D03*
X132766000Y-130886000D03*
X135306000Y-130886000D03*
X137846000Y-130886000D03*
X140386000Y-130886000D03*
X142926000Y-130886000D03*
X145466000Y-130886000D03*
X148006000Y-130886000D03*
X148006000Y-146126000D03*
X145466000Y-146126000D03*
X142926000Y-146126000D03*
X140386000Y-146126000D03*
X137846000Y-146126000D03*
X135306000Y-146126000D03*
X132766000Y-146126000D03*
X130226000Y-146126000D03*
X127686000Y-146126000D03*
X133906000Y-143226000D03*
X136446000Y-143226000D03*
X144336000Y-143226000D03*
X146876000Y-143226000D03*
D18*
X143544000Y-134247000D03*
X142894000Y-134247000D03*
X142244000Y-134247000D03*
X141594000Y-134247000D03*
X140944000Y-134247000D03*
X140294000Y-134247000D03*
X139644000Y-134247000D03*
X138994000Y-134247000D03*
X138344000Y-134247000D03*
X137694000Y-134247000D03*
X137044000Y-134247000D03*
X136394000Y-134247000D03*
X135744000Y-134247000D03*
X135094000Y-134247000D03*
X135094000Y-140123000D03*
X135744000Y-140123000D03*
X136394000Y-140123000D03*
X137044000Y-140123000D03*
X137694000Y-140123000D03*
X138344000Y-140123000D03*
X138994000Y-140123000D03*
X139644000Y-140123000D03*
X140294000Y-140123000D03*
X140944000Y-140123000D03*
X141594000Y-140123000D03*
X142244000Y-140123000D03*
X142894000Y-140123000D03*
X143544000Y-140123000D03*
D19*
X133223000Y-151765000D03*
D20*
X135763000Y-151765000D03*
X138303000Y-151765000D03*
X140843000Y-151765000D03*
X143383000Y-151765000D03*
X145923000Y-151765000D03*
D19*
X122098000Y-127864000D03*
D20*
X122098000Y-130404000D03*
D19*
X122098000Y-141961000D03*
D20*
X122098000Y-144501000D03*
D21*
X125578000Y-74168000D03*
D22*
X127578000Y-74168000D03*
D21*
X134290000Y-74142600D03*
D22*
X136290000Y-74142600D03*
D21*
X143027000Y-74117200D03*
D22*
X145027000Y-74117200D03*
D21*
X151765000Y-74117200D03*
D22*
X153765000Y-74117200D03*
D23*
X122548000Y-86791800D03*
X122548000Y-89331800D03*
X122548000Y-91871800D03*
X122548000Y-94411800D03*
X131148000Y-94411800D03*
X131148000Y-91871800D03*
X131148000Y-89331800D03*
X131148000Y-86791800D03*
X122522000Y-98882000D03*
X122522000Y-101422000D03*
X122522000Y-103962000D03*
X122522000Y-106502000D03*
X131122000Y-106502000D03*
X131122000Y-103962000D03*
X131122000Y-101422000D03*
X131122000Y-98882000D03*
X157056000Y-94462600D03*
X157056000Y-91922600D03*
X157056000Y-89382600D03*
X157056000Y-86842600D03*
X148456000Y-86842600D03*
X148456000Y-89382600D03*
X148456000Y-91922600D03*
X148456000Y-94462600D03*
X157056000Y-106375000D03*
X157056000Y-103835000D03*
X157056000Y-101295000D03*
X157056000Y-98755000D03*
X148456000Y-98755000D03*
X148456000Y-101295000D03*
X148456000Y-103835000D03*
X148456000Y-106375000D03*
D24*
X129286000Y-115595000D03*
D25*
X129286000Y-125755000D03*
D24*
X137236000Y-115621000D03*
D25*
X137236000Y-125781000D03*
D24*
X141351000Y-115595000D03*
D25*
X141351000Y-125755000D03*
D24*
X149733000Y-115595000D03*
D25*
X149733000Y-125755000D03*
D26*
X125163000Y-113061000D03*
X125163000Y-114981000D03*
X127263000Y-114021000D03*
X133519000Y-113162000D03*
X133519000Y-115082000D03*
X135619000Y-114122000D03*
X145500000Y-114981000D03*
X145500000Y-113061000D03*
X143400000Y-114021000D03*
X153831000Y-114955000D03*
X153831000Y-113035000D03*
X151731000Y-113995000D03*
D27*
X146609000Y-133114000D03*
X146609000Y-135314000D03*
X148082000Y-133114000D03*
X148082000Y-135314000D03*
X149555000Y-133114000D03*
X149555000Y-135314000D03*
D14*
X130310000Y-140081000D03*
X128110000Y-140081000D03*
X130310000Y-138659000D03*
X128110000Y-138659000D03*
X130310000Y-137236000D03*
X128110000Y-137236000D03*
X130284000Y-135788000D03*
X128084000Y-135788000D03*
X130284000Y-134417000D03*
X128084000Y-134417000D03*
X124900000Y-96647000D03*
X122700000Y-96647000D03*
D27*
X123419000Y-114867000D03*
X123419000Y-112667000D03*
D14*
X133459000Y-96647000D03*
X131259000Y-96647000D03*
D27*
X131978000Y-115095000D03*
X131978000Y-112895000D03*
D14*
X146195000Y-96596200D03*
X148395000Y-96596200D03*
D27*
X147041000Y-112717000D03*
X147041000Y-114917000D03*
D14*
X154881000Y-96596200D03*
X157081000Y-96596200D03*
D27*
X155397000Y-112667000D03*
X155397000Y-114867000D03*
D12*
X139116000Y-91805800D03*
X139116000Y-89905800D03*
D28*
X124739000Y-151714000D03*
X154737000Y-151714000D03*
X124282000Y-121361000D03*
X154762000Y-121717000D03*
D29*
X147887700Y-105189400D03*
X137027100Y-104839400D03*
X138183200Y-103786300D03*
X133915200Y-103778200D03*
X139230300Y-121534600D03*
X147695100Y-125694600D03*
X143269300Y-155228900D03*
X139881900Y-157531500D03*
X136978300Y-87250900D03*
X136971000Y-99507000D03*
X149803100Y-111534800D03*
X151319300Y-110680400D03*
X146269700Y-110813400D03*
X134163400Y-98502400D03*
X146052700Y-89600000D03*
X147679700Y-88027700D03*
X145602100Y-92424800D03*
X145602600Y-105264500D03*
X132978400Y-104788700D03*
X134278800Y-102624400D03*
X130054700Y-144484300D03*
X137478100Y-157754300D03*
X143903900Y-141300900D03*
X128634800Y-142362600D03*
X125435900Y-93026800D03*
X124911900Y-97794100D03*
X123914000Y-102300000D03*
X130205400Y-97174200D03*
X149457300Y-96572500D03*
X154966600Y-93240600D03*
X155329900Y-95645700D03*
X154807100Y-101862200D03*
X148471600Y-111324800D03*
X151606200Y-107541100D03*
X136859200Y-132820600D03*
X144336400Y-132450100D03*
X141021900Y-154082300D03*
X136995400Y-94734400D03*
X137668700Y-107337800D03*
X145497100Y-104431000D03*
X145567500Y-106729500D03*
X149657000Y-112930400D03*
X142119100Y-103654900D03*
X145522000Y-87553700D03*
X146571900Y-91038300D03*
X146025800Y-99939300D03*
X145341700Y-102705600D03*
X151561700Y-104999600D03*
X154699100Y-102913000D03*
X155645900Y-101908800D03*
X134297000Y-126257500D03*
X134175900Y-122401800D03*
X127603600Y-107907200D03*
X127599200Y-102586600D03*
X133648500Y-123072600D03*
X125003300Y-107186000D03*
X155467400Y-94800600D03*
X149335500Y-95727100D03*
X150474200Y-95118100D03*
X133433400Y-97555500D03*
X142684700Y-125885400D03*
X138302100Y-119500300D03*
X129604800Y-104842200D03*
X142656300Y-141597300D03*
X140350400Y-132634600D03*
X133985100Y-134209800D03*
X141068900Y-133048900D03*
X131515800Y-134599000D03*
X141658300Y-130645000D03*
X140347700Y-129122000D03*
X140984400Y-128011300D03*
X149352000Y-120700800D03*
X142683200Y-138845600D03*
X145657300Y-136211000D03*
X126311200Y-110251100D03*
X130553200Y-102600200D03*
X128501800Y-106790800D03*
X134346900Y-105034500D03*
X154512700Y-108668900D03*
X150877100Y-112542900D03*
X143607200Y-119732400D03*
X146810500Y-108558900D03*
X148031100Y-112892100D03*
X150315400Y-109521400D03*
D30*
X140423000Y-157139000D02*
X141773000Y-156489000D01*
X140273000Y-157139000D02*
X140423000Y-157139000D01*
X140178100Y-157168000D02*
X140156700Y-157194200D01*
X140239200Y-157139000D02*
X140178100Y-157168000D01*
X140273000Y-157139000D02*
X140239200Y-157139000D01*
X139881900Y-157531500D02*
X140156700Y-157194200D01*
X143123000Y-155839000D02*
X141773000Y-156489000D01*
X143123000Y-155689000D02*
X143123000Y-155839000D01*
X143123000Y-155676800D02*
X143123000Y-155689000D01*
X143126900Y-155652800D02*
X143123000Y-155676800D01*
X143130800Y-155641200D02*
X143126900Y-155652800D01*
X143269300Y-155228900D02*
X143130800Y-155641200D01*
X147695100Y-125694600D02*
X149733000Y-125755000D01*
X137236000Y-125781000D02*
X141351000Y-125755000D01*
X122098000Y-130404000D02*
X129286000Y-125755000D01*
X139230300Y-121534600D02*
X137236000Y-125781000D01*
X132426500Y-100534300D02*
X133915200Y-103778200D01*
X132415100Y-100511200D02*
X132410800Y-100503700D01*
X132422900Y-100526500D02*
X132415100Y-100511200D01*
X132426500Y-100534300D02*
X132422900Y-100526500D01*
X131941700Y-99681300D02*
X132410800Y-100503700D01*
X131932000Y-99664300D02*
X131941700Y-99681300D01*
X131922000Y-99626500D02*
X131932000Y-99664300D01*
X131922000Y-99607000D02*
X131922000Y-99626500D01*
X131922000Y-99457000D02*
X131922000Y-99607000D01*
X131122000Y-98882000D02*
X131922000Y-99457000D01*
X138183200Y-103786300D02*
X137027100Y-104839400D01*
X147887700Y-105650000D02*
X147887700Y-105189400D01*
X147887700Y-105800000D02*
X147887700Y-105650000D01*
X148456000Y-106375000D02*
X147887700Y-105800000D01*
X140262000Y-89905800D02*
X140487000Y-89905800D01*
X140112000Y-89905800D02*
X140262000Y-89905800D01*
X139491000Y-89905800D02*
X140112000Y-89905800D01*
X139341000Y-89905800D02*
X139491000Y-89905800D01*
X139116000Y-89905800D02*
X139341000Y-89905800D01*
X140738000Y-101749000D02*
X140513000Y-102199000D01*
X140888000Y-101749000D02*
X140738000Y-101749000D01*
X143167000Y-101749000D02*
X140888000Y-101749000D01*
X143317000Y-101749000D02*
X143167000Y-101749000D01*
X143967000Y-100721000D02*
X143317000Y-101749000D01*
X133216000Y-98163900D02*
X134163400Y-98502400D01*
X133090800Y-98119200D02*
X133216000Y-98163900D01*
X132896100Y-97938200D02*
X133090800Y-98119200D01*
X132842400Y-97816600D02*
X132896100Y-97938200D01*
X132842500Y-97816600D02*
X132842400Y-97816600D01*
X132800100Y-97732300D02*
X132783200Y-97705800D01*
X132829800Y-97787800D02*
X132800100Y-97732300D01*
X132842500Y-97816600D02*
X132829800Y-97787800D01*
X132529600Y-97306000D02*
X132783200Y-97705800D01*
X132511400Y-97277500D02*
X132529600Y-97306000D01*
X132485600Y-97214900D02*
X132511400Y-97277500D01*
X132478200Y-97181900D02*
X132485600Y-97214900D01*
X132239800Y-96112100D02*
X132478200Y-97181900D01*
X132234200Y-96089700D02*
X132231900Y-96082300D01*
X132238100Y-96104600D02*
X132234200Y-96089700D01*
X132239800Y-96112100D02*
X132238100Y-96104600D01*
X131954600Y-95180900D02*
X132231900Y-96082300D01*
X131951300Y-95170200D02*
X131954600Y-95180900D01*
X131948000Y-95148000D02*
X131951300Y-95170200D01*
X131948000Y-95136800D02*
X131948000Y-95148000D01*
X131948000Y-94986800D02*
X131948000Y-95136800D01*
X131148000Y-94411800D02*
X131948000Y-94986800D01*
X137478100Y-157139000D02*
X137373000Y-156489000D01*
X137478100Y-157289000D02*
X137478100Y-157139000D01*
X137478100Y-157754300D02*
X137478100Y-157289000D01*
X132278000Y-115088500D02*
X131978000Y-115095000D01*
X132428000Y-115088500D02*
X132278000Y-115088500D01*
X132919000Y-115088500D02*
X132428000Y-115088500D01*
X133069000Y-115088500D02*
X132919000Y-115088500D01*
X133519000Y-115082000D02*
X133069000Y-115088500D01*
X125613000Y-115156000D02*
X125163000Y-114981000D01*
X125613000Y-115306000D02*
X125613000Y-115156000D01*
X125664600Y-115428200D02*
X125707300Y-115445300D01*
X125613000Y-115352000D02*
X125664600Y-115428200D01*
X125613000Y-115306000D02*
X125613000Y-115352000D01*
X128844000Y-116700000D02*
X125707300Y-115445300D01*
X129708200Y-116746500D02*
X129953400Y-116580300D01*
X129119100Y-116810000D02*
X129708200Y-116746500D01*
X128844000Y-116700000D02*
X129119100Y-116810000D01*
X131443900Y-115570800D02*
X129953400Y-116580300D01*
X131462500Y-115558200D02*
X131443900Y-115570800D01*
X131505500Y-115545000D02*
X131462500Y-115558200D01*
X131528000Y-115545000D02*
X131505500Y-115545000D01*
X131678000Y-115545000D02*
X131528000Y-115545000D01*
X131978000Y-115095000D02*
X131678000Y-115545000D01*
X136023000Y-155839000D02*
X137373000Y-156489000D01*
X136023000Y-155689000D02*
X136023000Y-155839000D01*
X136017300Y-155645600D02*
X136011700Y-155632000D01*
X136023000Y-155674300D02*
X136017300Y-155645600D01*
X136023000Y-155689000D02*
X136023000Y-155674300D01*
X134616000Y-152236500D02*
X136011700Y-155632000D01*
X134577800Y-152143400D02*
X134616000Y-152236500D01*
X134532200Y-151947300D02*
X134577800Y-152143400D01*
X134525600Y-151846900D02*
X134532200Y-151947300D01*
X134462200Y-150889200D02*
X134525600Y-151846900D01*
X134426900Y-150743500D02*
X134399400Y-150701300D01*
X134458900Y-150839000D02*
X134426900Y-150743500D01*
X134462200Y-150889200D02*
X134458900Y-150839000D01*
X131812200Y-146750600D02*
X134399400Y-150701300D01*
X131792900Y-146721100D02*
X131812200Y-146750600D01*
X131758000Y-146659900D02*
X131792900Y-146721100D01*
X131742500Y-146628300D02*
X131758000Y-146659900D01*
X131249500Y-145623700D02*
X131742500Y-146628300D01*
X131053700Y-145333200D02*
X130964300Y-145257200D01*
X131197800Y-145518400D02*
X131053700Y-145333200D01*
X131249500Y-145623700D02*
X131197800Y-145518400D01*
X130054700Y-144484300D02*
X130964300Y-145257200D01*
X134788900Y-102183500D02*
X134278800Y-102624400D01*
X134809400Y-102165800D02*
X134788900Y-102183500D01*
X134860000Y-102147000D02*
X134809400Y-102165800D01*
X134887000Y-102147000D02*
X134860000Y-102147000D01*
X135037000Y-102147000D02*
X134887000Y-102147000D01*
X135687000Y-100797000D02*
X135037000Y-102147000D01*
X131922000Y-105927000D02*
X131122000Y-106502000D01*
X132072000Y-105927000D02*
X131922000Y-105927000D01*
X132172000Y-105894400D02*
X132193200Y-105865400D01*
X132107900Y-105927000D02*
X132172000Y-105894400D01*
X132072000Y-105927000D02*
X132107900Y-105927000D01*
X132978400Y-104788700D02*
X132193200Y-105865400D01*
X144617000Y-102071000D02*
X143967000Y-100721000D01*
X144617000Y-102221000D02*
X144617000Y-102071000D01*
X144617000Y-102221000D02*
X144617400Y-102231300D01*
X144653200Y-102752900D02*
X144617400Y-102231300D01*
X144835100Y-103202700D02*
X144975600Y-103290600D01*
X144664600Y-102918300D02*
X144835100Y-103202700D01*
X144653200Y-102752900D02*
X144664600Y-102918300D01*
X145863200Y-103846000D02*
X144975600Y-103290600D01*
X146154800Y-104028500D02*
X145863200Y-103846000D01*
X146214400Y-104713800D02*
X146154800Y-104028500D01*
X145958800Y-104943900D02*
X146214400Y-104713800D01*
X145602600Y-105264500D02*
X145958800Y-104943900D01*
X131678000Y-114645000D02*
X131978000Y-115095000D01*
X131678000Y-114495000D02*
X131678000Y-114645000D01*
X131665900Y-114432100D02*
X131654200Y-114414000D01*
X131678000Y-114473500D02*
X131665900Y-114432100D01*
X131678000Y-114495000D02*
X131678000Y-114473500D01*
X131199700Y-113705700D02*
X131654200Y-114414000D01*
X131169400Y-113658600D02*
X131199700Y-113705700D01*
X131137900Y-113551000D02*
X131169400Y-113658600D01*
X131137900Y-113495000D02*
X131137900Y-113551000D01*
X131137900Y-107227000D02*
X131137900Y-113495000D01*
X131137900Y-107077000D02*
X131137900Y-107227000D01*
X131122000Y-106502000D02*
X131137900Y-107077000D01*
X123719000Y-114924000D02*
X123419000Y-114867000D01*
X123869000Y-114924000D02*
X123719000Y-114924000D01*
X124563000Y-114924000D02*
X123869000Y-114924000D01*
X124713000Y-114924000D02*
X124563000Y-114924000D01*
X125163000Y-114981000D02*
X124713000Y-114924000D01*
X121691900Y-127164000D02*
X122098000Y-127864000D01*
X121691900Y-127014000D02*
X121691900Y-127164000D01*
X121691900Y-121361000D02*
X121691900Y-127014000D01*
X121691900Y-121197700D02*
X121691900Y-121361000D01*
X121732900Y-120873800D02*
X121691900Y-121197700D01*
X121773600Y-120715700D02*
X121732900Y-120873800D01*
X123114300Y-115504400D02*
X121773600Y-120715700D01*
X123119000Y-115476500D02*
X123119000Y-115467000D01*
X123116700Y-115495200D02*
X123119000Y-115476500D01*
X123114300Y-115504400D02*
X123116700Y-115495200D01*
X123119000Y-115317000D02*
X123119000Y-115467000D01*
X123419000Y-114867000D02*
X123119000Y-115317000D01*
X136337000Y-101749000D02*
X135687000Y-100797000D01*
X136487000Y-101749000D02*
X136337000Y-101749000D01*
X138792000Y-101749000D02*
X136487000Y-101749000D01*
X138942000Y-101749000D02*
X138792000Y-101749000D01*
X139167000Y-102199000D02*
X138942000Y-101749000D01*
X147341000Y-112267000D02*
X147041000Y-112717000D01*
X147491000Y-112267000D02*
X147341000Y-112267000D01*
X147517600Y-112264900D02*
X147526200Y-112262800D01*
X147499900Y-112267000D02*
X147517600Y-112264900D01*
X147491000Y-112267000D02*
X147499900Y-112267000D01*
X148633500Y-111995600D02*
X147526200Y-112262800D01*
X148705100Y-111974600D02*
X148728200Y-111965400D01*
X148657700Y-111989800D02*
X148705100Y-111974600D01*
X148633500Y-111995600D02*
X148657700Y-111989800D01*
X149803100Y-111534800D02*
X148728200Y-111965400D01*
X138891000Y-89455800D02*
X139116000Y-89905800D01*
X138741000Y-89455800D02*
X138891000Y-89455800D01*
X136538000Y-89455800D02*
X138741000Y-89455800D01*
X136388000Y-89455800D02*
X136538000Y-89455800D01*
X135738000Y-88884400D02*
X136388000Y-89455800D01*
X136337000Y-99507000D02*
X135687000Y-100797000D01*
X136487000Y-99507000D02*
X136337000Y-99507000D01*
X136971000Y-99507000D02*
X136487000Y-99507000D01*
X136388000Y-87534400D02*
X135738000Y-88884400D01*
X136538000Y-87534400D02*
X136388000Y-87534400D01*
X136606700Y-87519800D02*
X136625900Y-87505900D01*
X136561700Y-87534400D02*
X136606700Y-87519800D01*
X136538000Y-87534400D02*
X136561700Y-87534400D01*
X136978300Y-87250900D02*
X136625900Y-87505900D01*
X144617000Y-99371000D02*
X143967000Y-100721000D01*
X144767000Y-99371000D02*
X144617000Y-99371000D01*
X144778200Y-99370600D02*
X144781900Y-99370300D01*
X144770700Y-99371000D02*
X144778200Y-99370600D01*
X144767000Y-99371000D02*
X144770700Y-99371000D01*
X145957100Y-99252600D02*
X144781900Y-99370300D01*
X145974200Y-99250900D02*
X145957100Y-99252600D01*
X146008600Y-99249200D02*
X145974200Y-99250900D01*
X146025800Y-99249200D02*
X146008600Y-99249200D01*
X147506000Y-99249200D02*
X146025800Y-99249200D01*
X147656000Y-99249200D02*
X147506000Y-99249200D01*
X148456000Y-98755000D02*
X147656000Y-99249200D01*
X139392000Y-102199000D02*
X139167000Y-102199000D01*
X139542000Y-102199000D02*
X139392000Y-102199000D01*
X140138000Y-102199000D02*
X139542000Y-102199000D01*
X140288000Y-102199000D02*
X140138000Y-102199000D01*
X140513000Y-102199000D02*
X140288000Y-102199000D01*
X144632000Y-90424500D02*
X145602100Y-92424800D01*
X144624600Y-90409200D02*
X144632000Y-90424500D01*
X144617000Y-90376000D02*
X144624600Y-90409200D01*
X144617000Y-90359000D02*
X144617000Y-90376000D01*
X144617000Y-90209000D02*
X144617000Y-90359000D01*
X143967000Y-88859000D02*
X144617000Y-90209000D01*
X153334500Y-112601400D02*
X151319300Y-110680400D01*
X153356800Y-112622600D02*
X153334500Y-112601400D01*
X153381000Y-112679200D02*
X153356800Y-112622600D01*
X153381000Y-112710000D02*
X153381000Y-112679200D01*
X153381000Y-112860000D02*
X153381000Y-112710000D01*
X153831000Y-113035000D02*
X153381000Y-112860000D01*
X147679700Y-87567600D02*
X147679700Y-88027700D01*
X147679700Y-87417600D02*
X147679700Y-87567600D01*
X148456000Y-86842600D02*
X147679700Y-87417600D01*
X144617000Y-89600000D02*
X143967000Y-88859000D01*
X144767000Y-89600000D02*
X144617000Y-89600000D01*
X146052700Y-89600000D02*
X144767000Y-89600000D01*
X154281000Y-112860000D02*
X153831000Y-113035000D01*
X154431000Y-112860000D02*
X154281000Y-112860000D01*
X154947000Y-112860000D02*
X154431000Y-112860000D01*
X155097000Y-112860000D02*
X154947000Y-112860000D01*
X155397000Y-112667000D02*
X155097000Y-112860000D01*
X146731700Y-112065100D02*
X146269700Y-110813400D01*
X146736300Y-112077600D02*
X146731700Y-112065100D01*
X146741000Y-112103700D02*
X146736300Y-112077600D01*
X146741000Y-112117000D02*
X146741000Y-112103700D01*
X146741000Y-112267000D02*
X146741000Y-112117000D01*
X147041000Y-112717000D02*
X146741000Y-112267000D01*
X146741000Y-112889000D02*
X147041000Y-112717000D01*
X146591000Y-112889000D02*
X146741000Y-112889000D01*
X146100000Y-112889000D02*
X146591000Y-112889000D01*
X145950000Y-112889000D02*
X146100000Y-112889000D01*
X145500000Y-113061000D02*
X145950000Y-112889000D01*
X143317000Y-89455800D02*
X143967000Y-88859000D01*
X143167000Y-89455800D02*
X143317000Y-89455800D01*
X140862000Y-89455800D02*
X143167000Y-89455800D01*
X140712000Y-89455800D02*
X140862000Y-89455800D01*
X140487000Y-89905800D02*
X140712000Y-89455800D01*
X145996000Y-154396000D02*
X145771000Y-154396000D01*
X146146000Y-154396000D02*
X145996000Y-154396000D01*
X146691000Y-154396000D02*
X146146000Y-154396000D01*
X146841000Y-154396000D02*
X146691000Y-154396000D01*
X147066000Y-154396000D02*
X146841000Y-154396000D01*
X143647700Y-140948700D02*
X143903900Y-141300900D01*
X143633700Y-140929500D02*
X143647700Y-140948700D01*
X143619000Y-140884300D02*
X143633700Y-140929500D01*
X143619000Y-140860500D02*
X143619000Y-140884300D01*
X143619000Y-140710500D02*
X143619000Y-140860500D01*
X143544000Y-140123000D02*
X143619000Y-140710500D01*
X145923000Y-153946000D02*
X145771000Y-154396000D01*
X145923000Y-153796000D02*
X145923000Y-153946000D01*
X145923000Y-151765000D02*
X145923000Y-153796000D01*
X146039200Y-144000300D02*
X148006000Y-146126000D01*
X145982900Y-143939500D02*
X146039200Y-144000300D01*
X145889000Y-143802700D02*
X145982900Y-143939500D01*
X145852500Y-143728300D02*
X145889000Y-143802700D01*
X145359500Y-142723700D02*
X145852500Y-143728300D01*
X145180400Y-142452300D02*
X145099600Y-142379400D01*
X145311600Y-142626000D02*
X145180400Y-142452300D01*
X145359500Y-142723700D02*
X145311600Y-142626000D01*
X143903900Y-141300900D02*
X145099600Y-142379400D01*
X122098000Y-144501000D02*
X128634800Y-142362600D01*
X147945000Y-96896200D02*
X148395000Y-96596200D01*
X147945000Y-97046200D02*
X147945000Y-96896200D01*
X147945000Y-97097900D02*
X147945000Y-97046200D01*
X147881200Y-97179400D02*
X147945000Y-97097900D01*
X147831000Y-97191800D02*
X147881200Y-97179400D01*
X146888700Y-97424900D02*
X147831000Y-97191800D01*
X146877300Y-97427700D02*
X146888700Y-97424900D01*
X146854300Y-97432000D02*
X146877300Y-97427700D01*
X146842700Y-97433400D02*
X146854300Y-97432000D01*
X134839600Y-98912500D02*
X146842700Y-97433400D01*
X134670600Y-98970100D02*
X134626100Y-99010500D01*
X134779900Y-98919900D02*
X134670600Y-98970100D01*
X134839600Y-98912500D02*
X134779900Y-98919900D01*
X134626300Y-99010700D02*
X134626100Y-99010500D01*
X134460300Y-99161800D02*
X134626300Y-99010700D01*
X134014000Y-99210000D02*
X134460300Y-99161800D01*
X133819600Y-99097700D02*
X134014000Y-99210000D01*
X132862100Y-98544700D02*
X133819600Y-99097700D01*
X132704700Y-98453900D02*
X132862100Y-98544700D01*
X132461900Y-98183400D02*
X132704700Y-98453900D01*
X132388500Y-98017200D02*
X132461900Y-98183400D01*
X132388600Y-98017100D02*
X132388500Y-98017200D01*
X132356200Y-97958200D02*
X132342200Y-97940700D01*
X132379500Y-97996600D02*
X132356200Y-97958200D01*
X132388600Y-98017100D02*
X132379500Y-97996600D01*
X131741900Y-97190700D02*
X132342200Y-97940700D01*
X131725900Y-97170800D02*
X131741900Y-97190700D01*
X131709000Y-97122500D02*
X131725900Y-97170800D01*
X131709000Y-97097000D02*
X131709000Y-97122500D01*
X131709000Y-96947000D02*
X131709000Y-97097000D01*
X131259000Y-96647000D02*
X131709000Y-96947000D01*
X148006000Y-132664000D02*
X148082000Y-133114000D01*
X148006000Y-132514000D02*
X148006000Y-132664000D01*
X148006000Y-130886000D02*
X148006000Y-132514000D01*
X128534000Y-134117000D02*
X128084000Y-134417000D01*
X128684000Y-134117000D02*
X128534000Y-134117000D01*
X128746900Y-134104900D02*
X128765000Y-134093200D01*
X128705500Y-134117000D02*
X128746900Y-134104900D01*
X128684000Y-134117000D02*
X128705500Y-134117000D01*
X129473300Y-133638700D02*
X128765000Y-134093200D01*
X129519300Y-133609100D02*
X129473300Y-133638700D01*
X129624100Y-133577600D02*
X129519300Y-133609100D01*
X129678800Y-133576900D02*
X129624100Y-133577600D01*
X133975900Y-133519800D02*
X129678800Y-133576900D01*
X134007600Y-133519300D02*
X133975900Y-133519800D01*
X134070900Y-133524300D02*
X134007600Y-133519300D01*
X134102200Y-133529700D02*
X134070900Y-133524300D01*
X134843600Y-133657300D02*
X134102200Y-133529700D01*
X134862600Y-133659500D02*
X134869000Y-133659500D01*
X134849900Y-133658400D02*
X134862600Y-133659500D01*
X134843600Y-133657300D02*
X134849900Y-133658400D01*
X135019000Y-133659500D02*
X134869000Y-133659500D01*
X135094000Y-134247000D02*
X135019000Y-133659500D01*
X128084000Y-135488000D02*
X128084000Y-135788000D01*
X128084000Y-135338000D02*
X128084000Y-135488000D01*
X128084000Y-134867000D02*
X128084000Y-135338000D01*
X128084000Y-134717000D02*
X128084000Y-134867000D01*
X128084000Y-134417000D02*
X128084000Y-134717000D01*
X135169000Y-133659500D02*
X135094000Y-134247000D01*
X135169000Y-133509500D02*
X135169000Y-133659500D01*
X135169000Y-133388600D02*
X135169000Y-133509500D01*
X135318300Y-133198400D02*
X135169000Y-133388600D01*
X135435700Y-133169600D02*
X135318300Y-133198400D01*
X136859200Y-132820600D02*
X135435700Y-133169600D01*
X130809000Y-96947000D02*
X131259000Y-96647000D01*
X130659000Y-96947000D02*
X130809000Y-96947000D01*
X130603600Y-96956300D02*
X130587000Y-96965400D01*
X130640100Y-96947000D02*
X130603600Y-96956300D01*
X130659000Y-96947000D02*
X130640100Y-96947000D01*
X130205400Y-97174200D02*
X130587000Y-96965400D01*
X127660000Y-140381000D02*
X128110000Y-140081000D01*
X127510000Y-140381000D02*
X127660000Y-140381000D01*
X127488500Y-140382400D02*
X127481400Y-140383700D01*
X127502800Y-140381000D02*
X127488500Y-140382400D01*
X127510000Y-140381000D02*
X127502800Y-140381000D01*
X122976600Y-141258300D02*
X127481400Y-140383700D01*
X122969500Y-141259600D02*
X122976600Y-141258300D01*
X122955200Y-141261000D02*
X122969500Y-141259600D01*
X122948000Y-141261000D02*
X122955200Y-141261000D01*
X122798000Y-141261000D02*
X122948000Y-141261000D01*
X122098000Y-141961000D02*
X122798000Y-141261000D01*
X148751500Y-110010700D02*
X148471600Y-111324800D01*
X148765200Y-109946200D02*
X148751500Y-110010700D01*
X148833600Y-109833300D02*
X148765200Y-109946200D01*
X148884400Y-109791300D02*
X148833600Y-109833300D01*
X151606200Y-107541100D02*
X148884400Y-109791300D01*
X146909000Y-133114000D02*
X146609000Y-133114000D01*
X147059000Y-133114000D02*
X146909000Y-133114000D01*
X147632000Y-133114000D02*
X147059000Y-133114000D01*
X147782000Y-133114000D02*
X147632000Y-133114000D01*
X148082000Y-133114000D02*
X147782000Y-133114000D01*
X148382000Y-133114000D02*
X148082000Y-133114000D01*
X148532000Y-133114000D02*
X148382000Y-133114000D01*
X149105000Y-133114000D02*
X148532000Y-133114000D01*
X149255000Y-133114000D02*
X149105000Y-133114000D01*
X149555000Y-133114000D02*
X149255000Y-133114000D01*
X155058100Y-102270300D02*
X154807100Y-101862200D01*
X155139400Y-102379700D02*
X155172500Y-102410900D01*
X155081900Y-102309100D02*
X155139400Y-102379700D01*
X155058100Y-102270300D02*
X155081900Y-102309100D01*
X155180400Y-102418500D02*
X155172500Y-102410900D01*
X156001400Y-103217500D02*
X155180400Y-102418500D01*
X156076700Y-103260000D02*
X156106000Y-103260000D01*
X156022400Y-103237900D02*
X156076700Y-103260000D01*
X156001400Y-103217500D02*
X156022400Y-103237900D01*
X156256000Y-103260000D02*
X156106000Y-103260000D01*
X157056000Y-103835000D02*
X156256000Y-103260000D01*
X156256000Y-99330000D02*
X157056000Y-98755000D01*
X156256000Y-99480000D02*
X156256000Y-99330000D01*
X156256000Y-99500900D02*
X156256000Y-99480000D01*
X156244500Y-99541200D02*
X156256000Y-99500900D01*
X156233500Y-99559000D02*
X156244500Y-99541200D01*
X154807100Y-101862200D02*
X156233500Y-99559000D01*
X145546000Y-155846000D02*
X145771000Y-156296000D01*
X145546000Y-155696000D02*
X145546000Y-155846000D01*
X145501500Y-155581200D02*
X145463500Y-155562100D01*
X145546000Y-155653500D02*
X145501500Y-155581200D01*
X145546000Y-155696000D02*
X145546000Y-155653500D01*
X143579900Y-154612700D02*
X145463500Y-155562100D01*
X143448900Y-154561000D02*
X143402800Y-154551800D01*
X143537900Y-154591500D02*
X143448900Y-154561000D01*
X143579900Y-154612700D02*
X143537900Y-154591500D01*
X141021900Y-154082300D02*
X143402800Y-154551800D01*
X124142200Y-97453800D02*
X124911900Y-97794100D01*
X124128500Y-97447700D02*
X124142200Y-97453800D01*
X124102000Y-97433400D02*
X124128500Y-97447700D01*
X124089300Y-97425300D02*
X124102000Y-97433400D01*
X123381000Y-96970800D02*
X124089300Y-97425300D01*
X123321500Y-96947000D02*
X123300000Y-96947000D01*
X123362900Y-96959200D02*
X123321500Y-96947000D01*
X123381000Y-96970800D02*
X123362900Y-96959200D01*
X123150000Y-96947000D02*
X123300000Y-96947000D01*
X122700000Y-96647000D02*
X123150000Y-96947000D01*
X128097000Y-136936000D02*
X128110000Y-137236000D01*
X128097000Y-136786000D02*
X128097000Y-136936000D01*
X128097000Y-136238000D02*
X128097000Y-136786000D01*
X128097000Y-136088000D02*
X128097000Y-136238000D01*
X128084000Y-135788000D02*
X128097000Y-136088000D01*
X157856000Y-91347600D02*
X157056000Y-91922600D01*
X158006000Y-91347600D02*
X157856000Y-91347600D01*
X158140800Y-91281900D02*
X158152300Y-91230600D01*
X158058600Y-91347600D02*
X158140800Y-91281900D01*
X158006000Y-91347600D02*
X158058600Y-91347600D01*
X158386500Y-90193500D02*
X158152300Y-91230600D01*
X158396100Y-90129300D02*
X158396100Y-90107600D01*
X158391300Y-90172400D02*
X158396100Y-90129300D01*
X158386500Y-90193500D02*
X158391300Y-90172400D01*
X158396100Y-88657600D02*
X158396100Y-90107600D01*
X158370000Y-88508400D02*
X158344800Y-88464300D01*
X158396100Y-88606800D02*
X158370000Y-88508400D01*
X158396100Y-88657600D02*
X158396100Y-88606800D01*
X157875700Y-87641900D02*
X158344800Y-88464300D01*
X157866000Y-87624900D02*
X157875700Y-87641900D01*
X157856000Y-87587100D02*
X157866000Y-87624900D01*
X157856000Y-87567600D02*
X157856000Y-87587100D01*
X157856000Y-87417600D02*
X157856000Y-87567600D01*
X157056000Y-86842600D02*
X157856000Y-87417600D01*
X146141400Y-132663000D02*
X144336400Y-132450100D01*
X146154600Y-132664000D02*
X146159000Y-132664000D01*
X146145800Y-132663500D02*
X146154600Y-132664000D01*
X146141400Y-132663000D02*
X146145800Y-132663500D01*
X146309000Y-132664000D02*
X146159000Y-132664000D01*
X146609000Y-133114000D02*
X146309000Y-132664000D01*
X128110000Y-138359000D02*
X128110000Y-138659000D01*
X128110000Y-138209000D02*
X128110000Y-138359000D01*
X128110000Y-137686000D02*
X128110000Y-138209000D01*
X128110000Y-137536000D02*
X128110000Y-137686000D01*
X128110000Y-137236000D02*
X128110000Y-137536000D01*
X123563900Y-102028500D02*
X123914000Y-102300000D01*
X123497000Y-101997000D02*
X123472000Y-101997000D01*
X123544200Y-102013200D02*
X123497000Y-101997000D01*
X123563900Y-102028500D02*
X123544200Y-102013200D01*
X123322000Y-101997000D02*
X123472000Y-101997000D01*
X122522000Y-101422000D02*
X123322000Y-101997000D01*
X145996000Y-156296000D02*
X145771000Y-156296000D01*
X146146000Y-156296000D02*
X145996000Y-156296000D01*
X146691000Y-156296000D02*
X146146000Y-156296000D01*
X146841000Y-156296000D02*
X146691000Y-156296000D01*
X147066000Y-156296000D02*
X146841000Y-156296000D01*
X157068500Y-98180000D02*
X157056000Y-98755000D01*
X157068500Y-98030000D02*
X157068500Y-98180000D01*
X157068500Y-97046200D02*
X157068500Y-98030000D01*
X157068500Y-96896200D02*
X157068500Y-97046200D01*
X157081000Y-96596200D02*
X157068500Y-96896200D01*
X156021700Y-92523500D02*
X154966600Y-93240600D01*
X156040400Y-92510900D02*
X156021700Y-92523500D01*
X156083500Y-92497600D02*
X156040400Y-92510900D01*
X156106000Y-92497600D02*
X156083500Y-92497600D01*
X156256000Y-92497600D02*
X156106000Y-92497600D01*
X157056000Y-91922600D02*
X156256000Y-92497600D01*
X122624000Y-96347000D02*
X122700000Y-96647000D01*
X122624000Y-96197000D02*
X122624000Y-96347000D01*
X122624000Y-95136800D02*
X122624000Y-96197000D01*
X122624000Y-94986800D02*
X122624000Y-95136800D01*
X122548000Y-94411800D02*
X122624000Y-94986800D01*
X156631000Y-96296200D02*
X157081000Y-96596200D01*
X156481000Y-96296200D02*
X156631000Y-96296200D01*
X156460600Y-96296200D02*
X156481000Y-96296200D01*
X156421400Y-96285400D02*
X156460600Y-96296200D01*
X156403900Y-96274900D02*
X156421400Y-96285400D01*
X155705300Y-95856400D02*
X156403900Y-96274900D01*
X155680200Y-95840700D02*
X155705300Y-95856400D01*
X155680200Y-95840600D02*
X155680200Y-95840700D01*
X155663400Y-95830200D02*
X155657600Y-95827000D01*
X155674700Y-95837000D02*
X155663400Y-95830200D01*
X155680200Y-95840600D02*
X155674700Y-95837000D01*
X155329900Y-95645700D02*
X155657600Y-95827000D01*
X121722000Y-101997000D02*
X122522000Y-101422000D01*
X121572000Y-101997000D02*
X121722000Y-101997000D01*
X121437200Y-102062700D02*
X121425700Y-102114000D01*
X121519400Y-101997000D02*
X121437200Y-102062700D01*
X121572000Y-101997000D02*
X121519400Y-101997000D01*
X121191500Y-103151100D02*
X121425700Y-102114000D01*
X121181900Y-103215300D02*
X121181900Y-103237000D01*
X121186700Y-103172200D02*
X121181900Y-103215300D01*
X121191500Y-103151100D02*
X121186700Y-103172200D01*
X121181900Y-104687000D02*
X121181900Y-103237000D01*
X121208000Y-104836200D02*
X121233200Y-104880300D01*
X121181900Y-104737800D02*
X121208000Y-104836200D01*
X121181900Y-104687000D02*
X121181900Y-104737800D01*
X121702300Y-105702700D02*
X121233200Y-104880300D01*
X121712000Y-105719700D02*
X121702300Y-105702700D01*
X121722000Y-105757500D02*
X121712000Y-105719700D01*
X121722000Y-105777000D02*
X121722000Y-105757500D01*
X121722000Y-105927000D02*
X121722000Y-105777000D01*
X122522000Y-106502000D02*
X121722000Y-105927000D01*
X121748000Y-93836800D02*
X122548000Y-94411800D01*
X121748000Y-93686800D02*
X121748000Y-93836800D01*
X121738000Y-93629500D02*
X121728300Y-93612500D01*
X121748000Y-93667300D02*
X121738000Y-93629500D01*
X121748000Y-93686800D02*
X121748000Y-93667300D01*
X121259200Y-92790100D02*
X121728300Y-93612500D01*
X121234000Y-92746000D02*
X121259200Y-92790100D01*
X121207900Y-92647600D02*
X121234000Y-92746000D01*
X121207900Y-92596800D02*
X121207900Y-92647600D01*
X121207900Y-91146800D02*
X121207900Y-92596800D01*
X121207900Y-91096000D02*
X121207900Y-91146800D01*
X121234000Y-90997700D02*
X121207900Y-91096000D01*
X121259200Y-90953500D02*
X121234000Y-90997700D01*
X121728300Y-90131100D02*
X121259200Y-90953500D01*
X121748000Y-90076300D02*
X121748000Y-90056800D01*
X121738000Y-90114100D02*
X121748000Y-90076300D01*
X121728300Y-90131100D02*
X121738000Y-90114100D01*
X121748000Y-89906800D02*
X121748000Y-90056800D01*
X122548000Y-89331800D02*
X121748000Y-89906800D01*
X132523000Y-151065000D02*
X133223000Y-151765000D01*
X132373000Y-151065000D02*
X132523000Y-151065000D01*
X132336300Y-151065000D02*
X132373000Y-151065000D01*
X132271300Y-151031100D02*
X132336300Y-151065000D01*
X132250200Y-151001100D02*
X132271300Y-151031100D01*
X129292300Y-146780300D02*
X132250200Y-151001100D01*
X129180800Y-146621000D02*
X129292300Y-146780300D01*
X129075800Y-146246600D02*
X129180800Y-146621000D01*
X129088300Y-146052600D02*
X129075800Y-146246600D01*
X129323500Y-142407000D02*
X129088300Y-146052600D01*
X129297200Y-142150300D02*
X129260600Y-142071800D01*
X129329100Y-142320600D02*
X129297200Y-142150300D01*
X129323500Y-142407000D02*
X129329100Y-142320600D01*
X128574000Y-140594200D02*
X129260600Y-142071800D01*
X128567100Y-140579400D02*
X128574000Y-140594200D01*
X128560000Y-140547400D02*
X128567100Y-140579400D01*
X128560000Y-140531000D02*
X128560000Y-140547400D01*
X128560000Y-140381000D02*
X128560000Y-140531000D01*
X128110000Y-140081000D02*
X128560000Y-140381000D01*
X123348000Y-93836800D02*
X122548000Y-94411800D01*
X123498000Y-93836800D02*
X123348000Y-93836800D01*
X123542700Y-93830800D02*
X123556600Y-93824900D01*
X123513100Y-93836800D02*
X123542700Y-93830800D01*
X123498000Y-93836800D02*
X123513100Y-93836800D01*
X125435900Y-93026800D02*
X123556600Y-93824900D01*
X148995000Y-96572500D02*
X149457300Y-96572500D01*
X148845000Y-96572500D02*
X148995000Y-96572500D01*
X148395000Y-96596200D02*
X148845000Y-96572500D01*
X128110000Y-139781000D02*
X128110000Y-140081000D01*
X128110000Y-139631000D02*
X128110000Y-139781000D01*
X128110000Y-139109000D02*
X128110000Y-139631000D01*
X128110000Y-138959000D02*
X128110000Y-139109000D01*
X128110000Y-138659000D02*
X128110000Y-138959000D01*
D31*
X136387000Y-105479500D02*
X135687000Y-105197000D01*
X136487000Y-105479500D02*
X136387000Y-105479500D01*
X137027100Y-105479500D02*
X136487000Y-105479500D01*
X137268200Y-105438000D02*
X137339900Y-105397800D01*
X137109300Y-105479500D02*
X137268200Y-105438000D01*
X137027100Y-105479500D02*
X137109300Y-105479500D01*
X138743100Y-104611800D02*
X137339900Y-105397800D01*
X138754300Y-104605500D02*
X138743100Y-104611800D01*
X138779200Y-104599000D02*
X138754300Y-104605500D01*
X138792000Y-104599000D02*
X138779200Y-104599000D01*
X138892000Y-104599000D02*
X138792000Y-104599000D01*
X139167000Y-104099000D02*
X138892000Y-104599000D01*
X134987000Y-104394400D02*
X135687000Y-105197000D01*
X134887000Y-104394400D02*
X134987000Y-104394400D01*
X134346900Y-104394400D02*
X134887000Y-104394400D01*
X134346900Y-104394400D02*
X134308000Y-104395600D01*
X133954100Y-104417100D02*
X134308000Y-104395600D01*
X133885200Y-104421300D02*
X133954100Y-104417100D01*
X133748900Y-104400200D02*
X133885200Y-104421300D01*
X133684500Y-104375300D02*
X133748900Y-104400200D01*
X133209100Y-104191600D02*
X133684500Y-104375300D01*
X133037600Y-104148600D02*
X132978400Y-104148600D01*
X133153900Y-104170300D02*
X133037600Y-104148600D01*
X133209100Y-104191600D02*
X133153900Y-104170300D01*
X132072000Y-104148600D02*
X132978400Y-104148600D01*
X131972000Y-104148600D02*
X132072000Y-104148600D01*
X131122000Y-103962000D02*
X131972000Y-104148600D01*
X130272000Y-104587000D02*
X131122000Y-103962000D01*
X130272000Y-104687000D02*
X130272000Y-104587000D01*
X130272000Y-104690500D02*
X130272000Y-104687000D01*
X130271500Y-104697400D02*
X130272000Y-104690500D01*
X130271000Y-104700900D02*
X130271500Y-104697400D01*
X130238700Y-104931200D02*
X130271000Y-104700900D01*
X130229200Y-104999100D02*
X130238700Y-104931200D01*
X130181800Y-105127700D02*
X130229200Y-104999100D01*
X130145000Y-105185600D02*
X130181800Y-105127700D01*
X129885000Y-105594500D02*
X130145000Y-105185600D01*
X129832700Y-105724400D02*
X129831900Y-105771400D01*
X129859800Y-105634200D02*
X129832700Y-105724400D01*
X129885000Y-105594500D02*
X129859800Y-105634200D01*
X129761000Y-110090400D02*
X129831900Y-105771400D01*
X129761000Y-110092000D02*
X129761000Y-110090400D01*
X129761000Y-110192000D02*
X129761000Y-110092000D01*
X129261000Y-110542000D02*
X129761000Y-110192000D01*
X130272000Y-103337000D02*
X131122000Y-103962000D01*
X130272000Y-103237000D02*
X130272000Y-103337000D01*
X130249600Y-103169300D02*
X130229600Y-103155300D01*
X130272000Y-103212600D02*
X130249600Y-103169300D01*
X130272000Y-103237000D02*
X130272000Y-103212600D01*
X130184300Y-103123300D02*
X130229600Y-103155300D01*
X130079800Y-103049600D02*
X130184300Y-103123300D01*
X129943500Y-102833300D02*
X130079800Y-103049600D01*
X129922100Y-102707300D02*
X129943500Y-102833300D01*
X129836700Y-102203900D02*
X129922100Y-102707300D01*
X129835100Y-102194300D02*
X129836700Y-102203900D01*
X129832900Y-102174900D02*
X129835100Y-102194300D01*
X129832400Y-102165200D02*
X129832900Y-102174900D01*
X129566200Y-97208500D02*
X129832400Y-102165200D01*
X129565500Y-97194500D02*
X129566200Y-97208500D01*
X129565200Y-97166300D02*
X129565500Y-97194500D01*
X129565700Y-97152300D02*
X129565200Y-97166300D01*
X129858100Y-88595200D02*
X129565700Y-97152300D01*
X129858700Y-88579200D02*
X129858100Y-88595200D01*
X129862800Y-88547500D02*
X129858700Y-88579200D01*
X129866300Y-88531900D02*
X129862800Y-88547500D01*
X130100500Y-87494800D02*
X129866300Y-88531900D01*
X130108200Y-87460600D02*
X130100500Y-87494800D01*
X130162900Y-87416800D02*
X130108200Y-87460600D01*
X130198000Y-87416800D02*
X130162900Y-87416800D01*
X130298000Y-87416800D02*
X130198000Y-87416800D01*
X131148000Y-86791800D02*
X130298000Y-87416800D01*
X136538000Y-94684400D02*
X136995400Y-94734400D01*
X136438000Y-94684400D02*
X136538000Y-94684400D01*
X135738000Y-93284400D02*
X136438000Y-94684400D01*
X136438000Y-92305800D02*
X135738000Y-93284400D01*
X136538000Y-92305800D02*
X136438000Y-92305800D01*
X138741000Y-92305800D02*
X136538000Y-92305800D01*
X138841000Y-92305800D02*
X138741000Y-92305800D01*
X139116000Y-91805800D02*
X138841000Y-92305800D01*
X137668700Y-110117000D02*
X137668700Y-107337800D01*
X137668700Y-110217000D02*
X137668700Y-110117000D01*
X137236000Y-110567000D02*
X137668700Y-110217000D01*
X143267000Y-92305800D02*
X143967000Y-93259000D01*
X143167000Y-92305800D02*
X143267000Y-92305800D01*
X140862000Y-92305800D02*
X143167000Y-92305800D01*
X140762000Y-92305800D02*
X140862000Y-92305800D01*
X140487000Y-91805800D02*
X140762000Y-92305800D01*
X144667000Y-93860800D02*
X143967000Y-93259000D01*
X144767000Y-93860800D02*
X144667000Y-93860800D01*
X147506000Y-93860800D02*
X144767000Y-93860800D01*
X147606000Y-93860800D02*
X147506000Y-93860800D01*
X148456000Y-94462600D02*
X147606000Y-93860800D01*
X149306000Y-95087600D02*
X148456000Y-94462600D01*
X149406000Y-95087600D02*
X149306000Y-95087600D01*
X149412300Y-95087600D02*
X149406000Y-95087600D01*
X149424700Y-95089100D02*
X149412300Y-95087600D01*
X149430800Y-95090700D02*
X149424700Y-95089100D01*
X149494500Y-95107100D02*
X149430800Y-95090700D01*
X149682400Y-95155200D02*
X149494500Y-95107100D01*
X149941400Y-95443900D02*
X149682400Y-95155200D01*
X149969100Y-95635800D02*
X149941400Y-95443900D01*
X150090900Y-96481200D02*
X149969100Y-95635800D01*
X150096900Y-96523100D02*
X150090900Y-96481200D01*
X150097800Y-96607800D02*
X150096900Y-96523100D01*
X150092700Y-96649800D02*
X150097800Y-96607800D01*
X149743600Y-99521000D02*
X150092700Y-96649800D01*
X149740500Y-99545900D02*
X149743600Y-99521000D01*
X149727200Y-99594300D02*
X149740500Y-99545900D01*
X149717100Y-99617300D02*
X149727200Y-99594300D01*
X149314500Y-100529600D02*
X149717100Y-99617300D01*
X149306000Y-100559600D02*
X149306000Y-100570000D01*
X149310300Y-100539100D02*
X149306000Y-100559600D01*
X149314500Y-100529600D02*
X149310300Y-100539100D01*
X149306000Y-100670000D02*
X149306000Y-100570000D01*
X148456000Y-101295000D02*
X149306000Y-100670000D01*
X147606000Y-101920000D02*
X148456000Y-101295000D01*
X147506000Y-101920000D02*
X147606000Y-101920000D01*
X147417300Y-101962400D02*
X147409000Y-101995800D01*
X147471600Y-101920000D02*
X147417300Y-101962400D01*
X147506000Y-101920000D02*
X147471600Y-101920000D01*
X146188500Y-106884500D02*
X147409000Y-101995800D01*
X146161900Y-106991200D02*
X146188500Y-106884500D01*
X146040500Y-107174500D02*
X146161900Y-106991200D01*
X145952700Y-107240700D02*
X146040500Y-107174500D01*
X142062200Y-110171900D02*
X145952700Y-107240700D01*
X142049200Y-110181700D02*
X142062200Y-110171900D01*
X142018300Y-110192000D02*
X142049200Y-110181700D01*
X142002000Y-110192000D02*
X142018300Y-110192000D01*
X141902000Y-110192000D02*
X142002000Y-110192000D01*
X141402000Y-110542000D02*
X141902000Y-110192000D01*
X145341700Y-102705600D02*
X146025800Y-99939300D01*
X146282700Y-88848500D02*
X145522000Y-87553700D01*
X146414400Y-89042800D02*
X146466300Y-89101500D01*
X146322400Y-88916000D02*
X146414400Y-89042800D01*
X146282700Y-88848500D02*
X146322400Y-88916000D01*
X146532100Y-89175800D02*
X146466300Y-89101500D01*
X146619200Y-89274200D02*
X146532100Y-89175800D01*
X146701700Y-89523700D02*
X146619200Y-89274200D01*
X146690500Y-89654600D02*
X146701700Y-89523700D01*
X146571900Y-91038300D02*
X146690500Y-89654600D01*
X144767000Y-104431000D02*
X145497100Y-104431000D01*
X144667000Y-104431000D02*
X144767000Y-104431000D01*
X143967000Y-105121000D02*
X144667000Y-104431000D01*
X140888000Y-103654900D02*
X142119100Y-103654900D01*
X140788000Y-103654900D02*
X140888000Y-103654900D01*
X140513000Y-104099000D02*
X140788000Y-103654900D01*
X149657000Y-113392000D02*
X149657000Y-112930400D01*
X149657000Y-113492000D02*
X149657000Y-113392000D01*
X149733000Y-113842000D02*
X149657000Y-113492000D01*
X144667000Y-106521000D02*
X143967000Y-105121000D01*
X144767000Y-106521000D02*
X144667000Y-106521000D01*
X144773500Y-106521000D02*
X144767000Y-106521000D01*
X144786300Y-106522600D02*
X144773500Y-106521000D01*
X144792600Y-106524300D02*
X144786300Y-106522600D01*
X145567500Y-106729500D02*
X144792600Y-106524300D01*
X128761000Y-113931500D02*
X129261000Y-113842000D01*
X128661000Y-113931500D02*
X128761000Y-113931500D01*
X127863000Y-113931500D02*
X128661000Y-113931500D01*
X127763000Y-113931500D02*
X127863000Y-113931500D01*
X127263000Y-114021000D02*
X127763000Y-113931500D01*
X129286000Y-114192000D02*
X129261000Y-113842000D01*
X129286000Y-114292000D02*
X129286000Y-114192000D01*
X129286000Y-115595000D02*
X129286000Y-114292000D01*
X136736000Y-113994500D02*
X137236000Y-113867000D01*
X136636000Y-113994500D02*
X136736000Y-113994500D01*
X136219000Y-113994500D02*
X136636000Y-113994500D01*
X136119000Y-113994500D02*
X136219000Y-113994500D01*
X135619000Y-114122000D02*
X136119000Y-113994500D01*
X137236000Y-114217000D02*
X137236000Y-113867000D01*
X137236000Y-114317000D02*
X137236000Y-114217000D01*
X137236000Y-115621000D02*
X137236000Y-114317000D01*
X141902000Y-113931500D02*
X141402000Y-113842000D01*
X142002000Y-113931500D02*
X141902000Y-113931500D01*
X142800000Y-113931500D02*
X142002000Y-113931500D01*
X142900000Y-113931500D02*
X142800000Y-113931500D01*
X143400000Y-114021000D02*
X142900000Y-113931500D01*
X141351000Y-114192000D02*
X141402000Y-113842000D01*
X141351000Y-114292000D02*
X141351000Y-114192000D01*
X141351000Y-115595000D02*
X141351000Y-114292000D01*
X150233000Y-110892000D02*
X149733000Y-110542000D01*
X150233000Y-110992000D02*
X150233000Y-110892000D01*
X150242900Y-111038200D02*
X150252300Y-111051000D01*
X150233000Y-111007900D02*
X150242900Y-111038200D01*
X150233000Y-110992000D02*
X150233000Y-111007900D01*
X150447100Y-111317700D02*
X150252300Y-111051000D01*
X150581200Y-111472100D02*
X150634100Y-111515400D01*
X150487400Y-111372900D02*
X150581200Y-111472100D01*
X150447100Y-111317700D02*
X150487400Y-111372900D01*
X151283200Y-112048100D02*
X150634100Y-111515400D01*
X151394300Y-112139300D02*
X151283200Y-112048100D01*
X151517200Y-112399200D02*
X151394300Y-112139300D01*
X151517200Y-112542900D02*
X151517200Y-112399200D01*
X151517200Y-113670000D02*
X151517200Y-112542900D01*
X151517200Y-113770000D02*
X151517200Y-113670000D01*
X151731000Y-113995000D02*
X151517200Y-113770000D01*
X151231000Y-114220000D02*
X151731000Y-113995000D01*
X151231000Y-114320000D02*
X151231000Y-114220000D01*
X151231000Y-114342500D02*
X151231000Y-114320000D01*
X151211800Y-114383100D02*
X151231000Y-114342500D01*
X151194400Y-114397300D02*
X151211800Y-114383100D01*
X149733000Y-115595000D02*
X151194400Y-114397300D01*
X132283400Y-85781700D02*
X122784000Y-79603600D01*
X132355800Y-85828700D02*
X132283400Y-85781700D01*
X132438100Y-85980500D02*
X132355800Y-85828700D01*
X132438100Y-86066800D02*
X132438100Y-85980500D01*
X132438100Y-87516800D02*
X132438100Y-86066800D01*
X132438100Y-87552300D02*
X132438100Y-87516800D01*
X132423400Y-87621700D02*
X132438100Y-87552300D01*
X132409100Y-87654100D02*
X132423400Y-87621700D01*
X132006500Y-88566400D02*
X132409100Y-87654100D01*
X131998000Y-88596400D02*
X131998000Y-88606800D01*
X132002300Y-88575900D02*
X131998000Y-88596400D01*
X132006500Y-88566400D02*
X132002300Y-88575900D01*
X131998000Y-88706800D02*
X131998000Y-88606800D01*
X131148000Y-89331800D02*
X131998000Y-88706800D01*
X146031400Y-87166100D02*
X140259000Y-79578200D01*
X146057100Y-87199800D02*
X146031400Y-87166100D01*
X146099000Y-87273400D02*
X146057100Y-87199800D01*
X146115000Y-87312600D02*
X146099000Y-87273400D01*
X146586400Y-88472200D02*
X146115000Y-87312600D01*
X146729600Y-88734900D02*
X146795900Y-88809800D01*
X146624100Y-88564900D02*
X146729600Y-88734900D01*
X146586400Y-88472200D02*
X146624100Y-88564900D01*
X146861600Y-88884100D02*
X146795900Y-88809800D01*
X146981700Y-89019700D02*
X146861600Y-88884100D01*
X147120200Y-89354500D02*
X146981700Y-89019700D01*
X147131000Y-89535300D02*
X147120200Y-89354500D01*
X147166500Y-90128000D02*
X147131000Y-89535300D01*
X147182600Y-90217200D02*
X147194900Y-90244900D01*
X147168300Y-90158300D02*
X147182600Y-90217200D01*
X147166500Y-90128000D02*
X147168300Y-90158300D01*
X147597500Y-91157200D02*
X147194900Y-90244900D01*
X147601700Y-91166800D02*
X147597500Y-91157200D01*
X147606000Y-91187200D02*
X147601700Y-91166800D01*
X147606000Y-91197600D02*
X147606000Y-91187200D01*
X147606000Y-91297600D02*
X147606000Y-91197600D01*
X148456000Y-91922600D02*
X147606000Y-91297600D01*
X132723000Y-122515600D02*
X127686000Y-130886000D01*
X132740300Y-122486800D02*
X132723000Y-122515600D01*
X132778500Y-122431400D02*
X132740300Y-122486800D01*
X132799300Y-122405000D02*
X132778500Y-122431400D01*
X133326700Y-121734200D02*
X132799300Y-122405000D01*
X133368800Y-121683900D02*
X133326700Y-121734200D01*
X138087900Y-116378700D02*
X133368800Y-121683900D01*
X138187500Y-116251400D02*
X138215100Y-116205100D01*
X138123700Y-116338400D02*
X138187500Y-116251400D01*
X138087900Y-116378700D02*
X138123700Y-116338400D01*
X140132000Y-112992300D02*
X138215100Y-116205100D01*
X140186300Y-112901100D02*
X140132000Y-112992300D01*
X140339800Y-112754500D02*
X140186300Y-112901100D01*
X140433300Y-112704400D02*
X140339800Y-112754500D01*
X147113000Y-109123000D02*
X140433300Y-112704400D01*
X147162900Y-109093600D02*
X147178800Y-109082500D01*
X147130000Y-109113900D02*
X147162900Y-109093600D01*
X147113000Y-109123000D02*
X147130000Y-109113900D01*
X149601700Y-107378200D02*
X147178800Y-109082500D01*
X149654700Y-107333200D02*
X149669300Y-107315200D01*
X149620700Y-107364800D02*
X149654700Y-107333200D01*
X149601700Y-107378200D02*
X149620700Y-107364800D01*
X151561700Y-104999600D02*
X149669300Y-107315200D01*
X156106000Y-101908800D02*
X155645900Y-101908800D01*
X156206000Y-101908800D02*
X156106000Y-101908800D01*
X157056000Y-101295000D02*
X156206000Y-101908800D01*
X133044600Y-122860500D02*
X130226000Y-130886000D01*
X133062000Y-122810800D02*
X133044600Y-122860500D01*
X133112700Y-122718400D02*
X133062000Y-122810800D01*
X133145300Y-122677000D02*
X133112700Y-122718400D01*
X133672700Y-122006200D02*
X133145300Y-122677000D01*
X133697600Y-121976400D02*
X133672700Y-122006200D01*
X138416700Y-116671200D02*
X133697600Y-121976400D01*
X138554700Y-116494800D02*
X138593000Y-116430600D01*
X138466400Y-116615400D02*
X138554700Y-116494800D01*
X138416700Y-116671200D02*
X138466400Y-116615400D01*
X140509900Y-113217700D02*
X138593000Y-116430600D01*
X140533700Y-113178000D02*
X140509900Y-113217700D01*
X140600500Y-113114200D02*
X140533700Y-113178000D01*
X140641300Y-113092300D02*
X140600500Y-113114200D01*
X147320900Y-109510900D02*
X140641300Y-113092300D01*
X147405300Y-109461200D02*
X147432000Y-109442400D01*
X147349700Y-109495500D02*
X147405300Y-109461200D01*
X147320900Y-109510900D02*
X147349700Y-109495500D01*
X149854900Y-107738100D02*
X147432000Y-109442400D01*
X149933800Y-107675600D02*
X149957500Y-107651800D01*
X149882400Y-107718800D02*
X149933800Y-107675600D01*
X149854900Y-107738100D02*
X149882400Y-107718800D01*
X154699100Y-102913000D02*
X149957500Y-107651800D01*
X127599200Y-102586600D02*
X127603600Y-107907200D01*
X134288600Y-123070900D02*
X134297000Y-126257500D01*
X134283200Y-122985000D02*
X134278000Y-122956700D01*
X134288500Y-123042200D02*
X134283200Y-122985000D01*
X134288600Y-123070900D02*
X134288500Y-123042200D01*
X134175900Y-122401800D02*
X134278000Y-122956700D01*
X123388600Y-104742100D02*
X125003300Y-107186000D01*
X123380500Y-104729900D02*
X123388600Y-104742100D01*
X123372000Y-104701700D02*
X123380500Y-104729900D01*
X123372000Y-104687000D02*
X123372000Y-104701700D01*
X123372000Y-104587000D02*
X123372000Y-104687000D01*
X122522000Y-103962000D02*
X123372000Y-104587000D01*
X133695700Y-126477100D02*
X135306000Y-130886000D01*
X133676600Y-126424700D02*
X133695700Y-126477100D01*
X133657000Y-126314900D02*
X133676600Y-126424700D01*
X133656900Y-126259200D02*
X133657000Y-126314900D01*
X133648500Y-123072600D02*
X133656900Y-126259200D01*
X139453700Y-128515700D02*
X137846000Y-130886000D01*
X139495500Y-128454000D02*
X139453700Y-128515700D01*
X139595300Y-128343400D02*
X139495500Y-128454000D01*
X139652300Y-128295400D02*
X139595300Y-128343400D01*
X140572300Y-127521500D02*
X139652300Y-128295400D01*
X140648900Y-127457100D02*
X140572300Y-127521500D01*
X140834000Y-127381100D02*
X140648900Y-127457100D01*
X140933800Y-127373200D02*
X140834000Y-127381100D01*
X141475800Y-127330300D02*
X140933800Y-127373200D01*
X141717000Y-127294400D02*
X141795100Y-127271500D01*
X141556900Y-127323900D02*
X141717000Y-127294400D01*
X141475800Y-127330300D02*
X141556900Y-127323900D01*
X142988300Y-126922100D02*
X141795100Y-127271500D01*
X143178600Y-126848500D02*
X143237100Y-126813600D01*
X143053700Y-126903000D02*
X143178600Y-126848500D01*
X142988300Y-126922100D02*
X143053700Y-126903000D01*
X150331900Y-122591300D02*
X143237100Y-126813600D01*
X150409300Y-122530500D02*
X150429200Y-122504200D01*
X150360200Y-122574500D02*
X150409300Y-122530500D01*
X150331900Y-122591300D02*
X150360200Y-122574500D01*
X152385400Y-119918800D02*
X150429200Y-122504200D01*
X152419200Y-119874300D02*
X152385400Y-119918800D01*
X152489900Y-119787700D02*
X152419200Y-119874300D01*
X152526900Y-119745800D02*
X152489900Y-119787700D01*
X156102100Y-115692000D02*
X152526900Y-119745800D01*
X156166300Y-115590900D02*
X156176300Y-115552000D01*
X156128700Y-115661900D02*
X156166300Y-115590900D01*
X156102100Y-115692000D02*
X156128700Y-115661900D01*
X158335300Y-107185000D02*
X156176300Y-115552000D01*
X158346100Y-107121500D02*
X158346100Y-107100000D01*
X158340700Y-107164200D02*
X158346100Y-107121500D01*
X158335300Y-107185000D02*
X158340700Y-107164200D01*
X158346100Y-98030000D02*
X158346100Y-107100000D01*
X158343600Y-97986500D02*
X158341100Y-97972200D01*
X158346100Y-98015500D02*
X158343600Y-97986500D01*
X158346100Y-98030000D02*
X158346100Y-98015500D01*
X158016100Y-96088400D02*
X158341100Y-97972200D01*
X157847000Y-95830700D02*
X157741600Y-95811600D01*
X157997900Y-95982800D02*
X157847000Y-95830700D01*
X158016100Y-96088400D02*
X157997900Y-95982800D01*
X156145400Y-95522200D02*
X157741600Y-95811600D01*
X156126400Y-95518800D02*
X156145400Y-95522200D01*
X156089400Y-95507600D02*
X156126400Y-95518800D01*
X156071700Y-95500000D02*
X156089400Y-95507600D01*
X155987300Y-95463800D02*
X156071700Y-95500000D01*
X155943700Y-95445000D02*
X155987300Y-95463800D01*
X155872300Y-95382500D02*
X155943700Y-95445000D01*
X155848000Y-95341800D02*
X155872300Y-95382500D01*
X155845400Y-95337500D02*
X155848000Y-95341800D01*
X155826800Y-95308100D02*
X155820100Y-95298600D01*
X155839400Y-95327500D02*
X155826800Y-95308100D01*
X155845400Y-95337500D02*
X155839400Y-95327500D01*
X155467400Y-94800600D02*
X155820100Y-95298600D01*
X154689800Y-96246200D02*
X154881000Y-96596200D01*
X154689800Y-96146200D02*
X154689800Y-96246200D01*
X154689800Y-95645700D02*
X154689800Y-96146200D01*
X154689800Y-95481300D02*
X154689800Y-95645700D01*
X154848200Y-95193100D02*
X154689800Y-95481300D01*
X154987100Y-95105100D02*
X154848200Y-95193100D01*
X155467400Y-94800600D02*
X154987100Y-95105100D01*
X141243900Y-130157200D02*
X140386000Y-130886000D01*
X141252400Y-130150000D02*
X141243900Y-130157200D01*
X147289200Y-125199600D02*
X141252400Y-130150000D01*
X147300200Y-125190600D02*
X147289200Y-125199600D01*
X147323000Y-125173500D02*
X147300200Y-125190600D01*
X147334800Y-125165500D02*
X147323000Y-125173500D01*
X150597200Y-122943900D02*
X147334800Y-125165500D01*
X150741800Y-122820500D02*
X150780200Y-122769800D01*
X150649700Y-122908100D02*
X150741800Y-122820500D01*
X150597200Y-122943900D02*
X150649700Y-122908100D01*
X152736400Y-120184300D02*
X150780200Y-122769800D01*
X152765100Y-120146300D02*
X152736400Y-120184300D01*
X152825400Y-120072600D02*
X152765100Y-120146300D01*
X152856900Y-120036900D02*
X152825400Y-120072600D01*
X156432100Y-115983100D02*
X152856900Y-120036900D01*
X156579400Y-115751100D02*
X156602500Y-115661900D01*
X156493100Y-115914000D02*
X156579400Y-115751100D01*
X156432100Y-115983100D02*
X156493100Y-115914000D01*
X158761500Y-107294900D02*
X156602500Y-115661900D01*
X158786200Y-107149300D02*
X158786200Y-107100000D01*
X158773800Y-107247200D02*
X158786200Y-107149300D01*
X158761500Y-107294900D02*
X158773800Y-107247200D01*
X158786200Y-98030000D02*
X158786200Y-107100000D01*
X158780500Y-97930200D02*
X158774800Y-97897400D01*
X158786200Y-97996700D02*
X158780500Y-97930200D01*
X158786200Y-98030000D02*
X158786200Y-97996700D01*
X158449800Y-96013600D02*
X158774800Y-97897400D01*
X158336300Y-95709000D02*
X158263700Y-95627400D01*
X158431200Y-95905900D02*
X158336300Y-95709000D01*
X158449800Y-96013600D02*
X158431200Y-95905900D01*
X157931300Y-95254100D02*
X158263700Y-95627400D01*
X157919100Y-95240400D02*
X157931300Y-95254100D01*
X157906000Y-95206000D02*
X157919100Y-95240400D01*
X157906000Y-95187600D02*
X157906000Y-95206000D01*
X157906000Y-95087600D02*
X157906000Y-95187600D01*
X157056000Y-94462600D02*
X157906000Y-95087600D01*
X154505700Y-93684800D02*
X154415300Y-93591000D01*
X154836200Y-93880700D02*
X154966600Y-93880700D01*
X154596200Y-93778700D02*
X154836200Y-93880700D01*
X154505700Y-93684800D02*
X154596200Y-93778700D01*
X156106000Y-93880700D02*
X154966600Y-93880700D01*
X156206000Y-93880700D02*
X156106000Y-93880700D01*
X157056000Y-94462600D02*
X156206000Y-93880700D01*
X154415300Y-93591000D02*
X150474200Y-95118100D01*
X146695000Y-96246200D02*
X146195000Y-96596200D01*
X146695000Y-96146200D02*
X146695000Y-96246200D01*
X146695000Y-96111700D02*
X146695000Y-96146200D01*
X146737500Y-96057400D02*
X146695000Y-96111700D01*
X146771000Y-96049100D02*
X146737500Y-96057400D01*
X147713300Y-95816000D02*
X146771000Y-96049100D01*
X147729100Y-95812100D02*
X147713300Y-95816000D01*
X147761400Y-95807300D02*
X147729100Y-95812100D01*
X147777700Y-95806500D02*
X147761400Y-95807300D01*
X149335500Y-95727100D02*
X147777700Y-95806500D01*
X154368700Y-93469300D02*
X154415300Y-93591000D01*
X154314100Y-93326500D02*
X154368700Y-93469300D01*
X154345700Y-93022200D02*
X154314100Y-93326500D01*
X154428600Y-92893700D02*
X154345700Y-93022200D01*
X156190000Y-90161800D02*
X154428600Y-92893700D01*
X156206000Y-90122000D02*
X156206000Y-90107600D01*
X156197800Y-90149700D02*
X156206000Y-90122000D01*
X156190000Y-90161800D02*
X156197800Y-90149700D01*
X156206000Y-90007600D02*
X156206000Y-90107600D01*
X157056000Y-89382600D02*
X156206000Y-90007600D01*
X133433400Y-97097000D02*
X133433400Y-97555500D01*
X133433400Y-96997000D02*
X133433400Y-97097000D01*
X133459000Y-96647000D02*
X133433400Y-96997000D01*
X125412200Y-97144800D02*
X129604800Y-104842200D01*
X125406200Y-97133800D02*
X125412200Y-97144800D01*
X125400000Y-97109500D02*
X125406200Y-97133800D01*
X125400000Y-97097000D02*
X125400000Y-97109500D01*
X125400000Y-96997000D02*
X125400000Y-97097000D01*
X124900000Y-96647000D02*
X125400000Y-96997000D01*
X142374700Y-125253100D02*
X142684700Y-125885400D01*
X142327700Y-125165900D02*
X142309800Y-125138100D01*
X142360200Y-125223400D02*
X142327700Y-125165900D01*
X142374700Y-125253100D02*
X142360200Y-125223400D01*
X139768600Y-121188300D02*
X142309800Y-125138100D01*
X139727600Y-121131000D02*
X139712200Y-121113300D01*
X139755900Y-121168500D02*
X139727600Y-121131000D01*
X139768600Y-121188300D02*
X139755900Y-121168500D01*
X138302100Y-119500300D02*
X139712200Y-121113300D01*
X125400000Y-96297000D02*
X124900000Y-96647000D01*
X125400000Y-96197000D02*
X125400000Y-96297000D01*
X125400000Y-96191600D02*
X125400000Y-96197000D01*
X125401100Y-96180900D02*
X125400000Y-96191600D01*
X125402300Y-96175600D02*
X125401100Y-96180900D01*
X126061200Y-93163600D02*
X125402300Y-96175600D01*
X125742400Y-92386700D02*
X125435900Y-92386700D01*
X126126700Y-92864200D02*
X125742400Y-92386700D01*
X126061200Y-93163600D02*
X126126700Y-92864200D01*
X123498000Y-92386700D02*
X125435900Y-92386700D01*
X123398000Y-92386700D02*
X123498000Y-92386700D01*
X122548000Y-91871800D02*
X123398000Y-92386700D01*
X123398000Y-91246800D02*
X122548000Y-91871800D01*
X123498000Y-91246800D02*
X123398000Y-91246800D01*
X123587800Y-91203000D02*
X123595500Y-91168800D01*
X123533100Y-91246800D02*
X123587800Y-91203000D01*
X123498000Y-91246800D02*
X123533100Y-91246800D01*
X123829700Y-90131700D02*
X123595500Y-91168800D01*
X123838100Y-90075700D02*
X123838100Y-90056800D01*
X123833900Y-90113300D02*
X123838100Y-90075700D01*
X123829700Y-90131700D02*
X123833900Y-90113300D01*
X123838100Y-88606800D02*
X123838100Y-90056800D01*
X123823500Y-88501900D02*
X123809100Y-88469500D01*
X123838100Y-88571300D02*
X123823500Y-88501900D01*
X123838100Y-88606800D02*
X123838100Y-88571300D01*
X123406500Y-87557200D02*
X123809100Y-88469500D01*
X123402300Y-87547600D02*
X123406500Y-87557200D01*
X123398000Y-87527200D02*
X123402300Y-87547600D01*
X123398000Y-87516800D02*
X123398000Y-87527200D01*
X123398000Y-87416800D02*
X123398000Y-87516800D01*
X122548000Y-86791800D02*
X123398000Y-87416800D01*
X138303000Y-151765000D02*
X135306000Y-146126000D01*
X143358600Y-141636100D02*
X144336000Y-143226000D01*
X143336800Y-141600600D02*
X143358600Y-141636100D01*
X143302700Y-141524500D02*
X143336800Y-141600600D01*
X143290700Y-141484500D02*
X143302700Y-141524500D01*
X143269500Y-141413700D02*
X143290700Y-141484500D01*
X143230700Y-141312600D02*
X143212900Y-141281200D01*
X143259100Y-141379100D02*
X143230700Y-141312600D01*
X143269500Y-141413700D02*
X143259100Y-141379100D01*
X143058100Y-141008600D02*
X143212900Y-141281200D01*
X143038900Y-140974700D02*
X143058100Y-141008600D01*
X143019000Y-140899400D02*
X143038900Y-140974700D01*
X143019000Y-140860500D02*
X143019000Y-140899400D01*
X143019000Y-140760500D02*
X143019000Y-140860500D01*
X142894000Y-140123000D02*
X143019000Y-140760500D01*
X142392900Y-140977900D02*
X142656300Y-141597300D01*
X142381100Y-140950000D02*
X142392900Y-140977900D01*
X142369000Y-140890800D02*
X142381100Y-140950000D01*
X142369000Y-140860500D02*
X142369000Y-140890800D01*
X142369000Y-140760500D02*
X142369000Y-140860500D01*
X142244000Y-140123000D02*
X142369000Y-140760500D01*
X143419000Y-134884500D02*
X143544000Y-134247000D01*
X143419000Y-134984500D02*
X143419000Y-134884500D01*
X143419000Y-135040600D02*
X143419000Y-134984500D01*
X143378400Y-135145200D02*
X143419000Y-135040600D01*
X143340600Y-135186700D02*
X143378400Y-135145200D01*
X143045400Y-135510300D02*
X143340600Y-135186700D01*
X143033900Y-135523000D02*
X143045400Y-135510300D01*
X143009900Y-135547100D02*
X143033900Y-135523000D01*
X142997300Y-135558700D02*
X143009900Y-135547100D01*
X142645200Y-135882500D02*
X142997300Y-135558700D01*
X142547000Y-135972900D02*
X142645200Y-135882500D01*
X142316200Y-136106900D02*
X142547000Y-135972900D01*
X142189000Y-136147400D02*
X142316200Y-136106900D01*
X130940300Y-139726300D02*
X142189000Y-136147400D01*
X130933000Y-139728600D02*
X130940300Y-139726300D01*
X130917700Y-139731000D02*
X130933000Y-139728600D01*
X130910000Y-139731000D02*
X130917700Y-139731000D01*
X130810000Y-139731000D02*
X130910000Y-139731000D01*
X130310000Y-140081000D02*
X130810000Y-139731000D01*
X142769000Y-134884500D02*
X142894000Y-134247000D01*
X142769000Y-134984500D02*
X142769000Y-134884500D01*
X142769000Y-135040600D02*
X142769000Y-134984500D01*
X142728400Y-135145200D02*
X142769000Y-135040600D01*
X142690600Y-135186700D02*
X142728400Y-135145200D01*
X142395400Y-135510300D02*
X142690600Y-135186700D01*
X142315400Y-135598000D02*
X142395400Y-135510300D01*
X142110600Y-135717800D02*
X142315400Y-135598000D01*
X141995000Y-135744600D02*
X142110600Y-135717800D01*
X130932600Y-138306400D02*
X141995000Y-135744600D01*
X130927000Y-138307700D02*
X130932600Y-138306400D01*
X130915700Y-138309000D02*
X130927000Y-138307700D01*
X130910000Y-138309000D02*
X130915700Y-138309000D01*
X130810000Y-138309000D02*
X130910000Y-138309000D01*
X130310000Y-138659000D02*
X130810000Y-138309000D01*
X142119000Y-134884500D02*
X142244000Y-134247000D01*
X142119000Y-134984500D02*
X142119000Y-134884500D01*
X142119000Y-135073900D02*
X142119000Y-134984500D01*
X142021200Y-135223500D02*
X142119000Y-135073900D01*
X141939300Y-135259300D02*
X142021200Y-135223500D01*
X141855400Y-135296100D02*
X141939300Y-135259300D01*
X141834300Y-135305200D02*
X141855400Y-135296100D01*
X141790200Y-135317800D02*
X141834300Y-135305200D01*
X141767500Y-135321100D02*
X141790200Y-135317800D01*
X130924300Y-136885000D02*
X141767500Y-135321100D01*
X130920700Y-136885500D02*
X130924300Y-136885000D01*
X130913600Y-136886000D02*
X130920700Y-136885500D01*
X130910000Y-136886000D02*
X130913600Y-136886000D01*
X130810000Y-136886000D02*
X130910000Y-136886000D01*
X130310000Y-137236000D02*
X130810000Y-136886000D01*
X131774000Y-135184700D02*
X133985100Y-134209800D01*
X131753400Y-135193800D02*
X131774000Y-135184700D01*
X131711000Y-135209000D02*
X131753400Y-135193800D01*
X131689300Y-135215100D02*
X131711000Y-135209000D01*
X130911100Y-135434300D02*
X131689300Y-135215100D01*
X130904500Y-135436100D02*
X130911100Y-135434300D01*
X130890900Y-135438000D02*
X130904500Y-135436100D01*
X130884000Y-135438000D02*
X130890900Y-135438000D01*
X130784000Y-135438000D02*
X130884000Y-135438000D01*
X130284000Y-135788000D02*
X130784000Y-135438000D01*
X141709000Y-133609500D02*
X141594000Y-134247000D01*
X141709000Y-133509500D02*
X141709000Y-133609500D01*
X141709000Y-133048900D02*
X141709000Y-133509500D01*
X141158100Y-132331900D02*
X140844300Y-132449500D01*
X141709000Y-132713800D02*
X141158100Y-132331900D01*
X141709000Y-133048900D02*
X141709000Y-132713800D01*
X140350400Y-132634600D02*
X140844300Y-132449500D01*
X130884000Y-134599000D02*
X131515800Y-134599000D01*
X130784000Y-134599000D02*
X130884000Y-134599000D01*
X130284000Y-134417000D02*
X130784000Y-134599000D01*
X141068900Y-133609500D02*
X140944000Y-134247000D01*
X141068900Y-133509500D02*
X141068900Y-133609500D01*
X141068900Y-133048900D02*
X141068900Y-133509500D01*
X140169000Y-133609500D02*
X140294000Y-134247000D01*
X140169000Y-133509500D02*
X140169000Y-133609500D01*
X140130100Y-133351900D02*
X140093800Y-133310800D01*
X140169000Y-133454600D02*
X140130100Y-133351900D01*
X140169000Y-133509500D02*
X140169000Y-133454600D01*
X139870800Y-133058500D02*
X140093800Y-133310800D01*
X139753000Y-132925200D02*
X139870800Y-133058500D01*
X139688700Y-132575300D02*
X139753000Y-132925200D01*
X139814100Y-132242400D02*
X139688700Y-132575300D01*
X140093300Y-132022000D02*
X139814100Y-132242400D01*
X140269800Y-131999600D02*
X140093300Y-132022000D01*
X140523300Y-131967400D02*
X140269800Y-131999600D01*
X141286400Y-131568100D02*
X141397100Y-131293300D01*
X140817200Y-131930100D02*
X141286400Y-131568100D01*
X140523300Y-131967400D02*
X140817200Y-131930100D01*
X141658300Y-130645000D02*
X141397100Y-131293300D01*
X139519000Y-133609500D02*
X139644000Y-134247000D01*
X139519000Y-133509500D02*
X139519000Y-133609500D01*
X139507400Y-133421900D02*
X139496100Y-133394600D01*
X139519000Y-133479900D02*
X139507400Y-133421900D01*
X139519000Y-133509500D02*
X139519000Y-133479900D01*
X139352500Y-133048300D02*
X139496100Y-133394600D01*
X139308600Y-132942200D02*
X139352500Y-133048300D01*
X139267200Y-132716200D02*
X139308600Y-132942200D01*
X139270700Y-132601400D02*
X139267200Y-132716200D01*
X139322000Y-130931300D02*
X139270700Y-132601400D01*
X139322000Y-130931300D02*
X139322700Y-130886000D01*
X139322700Y-130718500D02*
X139322700Y-130886000D01*
X139425800Y-130399600D02*
X139322700Y-130718500D01*
X139523800Y-130263800D02*
X139425800Y-130399600D01*
X140347700Y-129122000D02*
X139523800Y-130263800D01*
X138869000Y-133609500D02*
X138994000Y-134247000D01*
X138869000Y-133509500D02*
X138869000Y-133609500D01*
X138869000Y-133509500D02*
X138868700Y-133495500D01*
X138831800Y-132705600D02*
X138868700Y-133495500D01*
X138830100Y-132670000D02*
X138831800Y-132705600D01*
X138830100Y-132598900D02*
X138830100Y-132670000D01*
X138831800Y-132563300D02*
X138830100Y-132598900D01*
X138908100Y-130935800D02*
X138831800Y-132563300D01*
X138908100Y-130935800D02*
X138909300Y-130886000D01*
X138909300Y-130710800D02*
X138909300Y-130886000D01*
X138991300Y-130370200D02*
X138909300Y-130710800D01*
X139071000Y-130214200D02*
X138991300Y-130370200D01*
X139777700Y-128830800D02*
X139071000Y-130214200D01*
X139819600Y-128748800D02*
X139777700Y-128830800D01*
X139946300Y-128615000D02*
X139819600Y-128748800D01*
X140025900Y-128568700D02*
X139946300Y-128615000D01*
X140984400Y-128011300D02*
X140025900Y-128568700D01*
X143003700Y-126442600D02*
X148745500Y-120700800D01*
X148745500Y-120700800D02*
X149352000Y-120700800D01*
X138193400Y-133380500D02*
X138168900Y-133343600D01*
X142864600Y-126499700D02*
X142912800Y-126485600D01*
X142912800Y-126485600D02*
X143003700Y-126442600D01*
X143003700Y-126442600D02*
X143045300Y-126414300D01*
X142864600Y-126499700D02*
X141671400Y-126849100D01*
X141441000Y-126891500D02*
X141499500Y-126886900D01*
X141499500Y-126886900D02*
X141615000Y-126865600D01*
X141615000Y-126865600D02*
X141671400Y-126849100D01*
X141441000Y-126891500D02*
X140899100Y-126934500D01*
X140899100Y-126934500D02*
X140730700Y-126947800D01*
X140730700Y-126947800D02*
X140418300Y-127076000D01*
X140418300Y-127076000D02*
X140289000Y-127184700D01*
X140289000Y-127184700D02*
X139369000Y-127958600D01*
X139369000Y-127958600D02*
X139305700Y-128015000D01*
X139305700Y-128015000D02*
X137098800Y-130092200D01*
X137098800Y-130092200D02*
X136808700Y-130365300D01*
X136808700Y-130365300D02*
X136717400Y-131157000D01*
X136717400Y-131157000D02*
X136937800Y-131488900D01*
X136937800Y-131488900D02*
X138168900Y-133343600D01*
X138219000Y-133509500D02*
X138219000Y-133465200D01*
X138219000Y-133465200D02*
X138193400Y-133380500D01*
X138219000Y-133609500D02*
X138344000Y-134247000D01*
X138219000Y-133509500D02*
X138219000Y-133609500D01*
X140419000Y-139485500D02*
X140294000Y-140123000D01*
X140419000Y-139385500D02*
X140419000Y-139485500D01*
X140419000Y-139341700D02*
X140419000Y-139385500D01*
X140444000Y-139257800D02*
X140419000Y-139341700D01*
X140468000Y-139221200D02*
X140444000Y-139257800D01*
X140798100Y-138717100D02*
X140468000Y-139221200D01*
X140849600Y-138638500D02*
X140798100Y-138717100D01*
X140975400Y-138498900D02*
X140849600Y-138638500D01*
X141048200Y-138439500D02*
X140975400Y-138498900D01*
X145944200Y-134450300D02*
X141048200Y-138439500D01*
X145989700Y-134413200D02*
X145944200Y-134450300D01*
X146100300Y-134373900D02*
X145989700Y-134413200D01*
X146159000Y-134373900D02*
X146100300Y-134373900D01*
X148532000Y-134373900D02*
X146159000Y-134373900D01*
X148607700Y-134373900D02*
X148532000Y-134373900D01*
X148744700Y-134438100D02*
X148607700Y-134373900D01*
X148793200Y-134496200D02*
X148744700Y-134438100D01*
X149028200Y-134778000D02*
X148793200Y-134496200D01*
X149082700Y-134814000D02*
X149105000Y-134814000D01*
X149042400Y-134795100D02*
X149082700Y-134814000D01*
X149028200Y-134778000D02*
X149042400Y-134795100D01*
X149205000Y-134814000D02*
X149105000Y-134814000D01*
X149555000Y-135314000D02*
X149205000Y-134814000D01*
X141069000Y-139485500D02*
X140944000Y-140123000D01*
X141069000Y-139385500D02*
X141069000Y-139485500D01*
X141069000Y-139169800D02*
X141069000Y-139385500D01*
X141298300Y-138804200D02*
X141069000Y-139169800D01*
X141492500Y-138710300D02*
X141298300Y-138804200D01*
X142404600Y-138269300D02*
X141492500Y-138710300D01*
X142435800Y-138255300D02*
X142404600Y-138269300D01*
X145904700Y-136801300D02*
X142435800Y-138255300D01*
X145904700Y-136801300D02*
X145918200Y-136795500D01*
X147197600Y-136224600D02*
X145918200Y-136795500D01*
X147295300Y-136161700D02*
X147320200Y-136131800D01*
X147233200Y-136208700D02*
X147295300Y-136161700D01*
X147197600Y-136224600D02*
X147233200Y-136208700D01*
X147555200Y-135850000D02*
X147320200Y-136131800D01*
X147569400Y-135832900D02*
X147555200Y-135850000D01*
X147609700Y-135814000D02*
X147569400Y-135832900D01*
X147632000Y-135814000D02*
X147609700Y-135814000D01*
X147732000Y-135814000D02*
X147632000Y-135814000D01*
X148082000Y-135314000D02*
X147732000Y-135814000D01*
X146094100Y-135838000D02*
X145657300Y-136211000D01*
X146107600Y-135826400D02*
X146094100Y-135838000D01*
X146141100Y-135814000D02*
X146107600Y-135826400D01*
X146159000Y-135814000D02*
X146141100Y-135814000D01*
X146259000Y-135814000D02*
X146159000Y-135814000D01*
X146609000Y-135314000D02*
X146259000Y-135814000D01*
X141719000Y-139485500D02*
X141594000Y-140123000D01*
X141719000Y-139385500D02*
X141719000Y-139485500D01*
X141719000Y-139296100D02*
X141719000Y-139385500D01*
X141816800Y-139146500D02*
X141719000Y-139296100D01*
X141898700Y-139110700D02*
X141816800Y-139146500D01*
X141982600Y-139073900D02*
X141898700Y-139110700D01*
X141990400Y-139070500D02*
X141982600Y-139073900D01*
X142006300Y-139064500D02*
X141990400Y-139070500D01*
X142014400Y-139061900D02*
X142006300Y-139064500D01*
X142683200Y-138845600D02*
X142014400Y-139061900D01*
D30*
X126028000Y-74868000D02*
X125578000Y-74168000D01*
X126178000Y-74868000D02*
X126028000Y-74868000D01*
X126213100Y-74868000D02*
X126178000Y-74868000D01*
X126276000Y-74899100D02*
X126213100Y-74868000D01*
X126297300Y-74927000D02*
X126276000Y-74899100D01*
X129128400Y-78639400D02*
X126297300Y-74927000D01*
X129169500Y-78693200D02*
X129128400Y-78639400D01*
X129242100Y-78807300D02*
X129169500Y-78693200D01*
X129273400Y-78867300D02*
X129242100Y-78807300D01*
X132833800Y-85682400D02*
X129273400Y-78867300D01*
X132880300Y-85771400D02*
X132833800Y-85682400D01*
X132928200Y-85966400D02*
X132880300Y-85771400D01*
X132928200Y-86066800D02*
X132928200Y-85966400D01*
X132928200Y-87516800D02*
X132928200Y-86066800D01*
X132928100Y-87553000D02*
X132928200Y-87516800D01*
X132921900Y-87625000D02*
X132928100Y-87553000D01*
X132915600Y-87660600D02*
X132921900Y-87625000D01*
X132482200Y-90124400D02*
X132915600Y-87660600D01*
X132476300Y-90157500D02*
X132482200Y-90124400D01*
X132453500Y-90220900D02*
X132476300Y-90157500D01*
X132436800Y-90250100D02*
X132453500Y-90220900D01*
X131967700Y-91072500D02*
X132436800Y-90250100D01*
X131948000Y-91127300D02*
X131948000Y-91146800D01*
X131958000Y-91089500D02*
X131948000Y-91127300D01*
X131967700Y-91072500D02*
X131958000Y-91089500D01*
X131948000Y-91296800D02*
X131948000Y-91146800D01*
X131148000Y-91871800D02*
X131948000Y-91296800D01*
X143477000Y-74817200D02*
X143027000Y-74117200D01*
X143477000Y-74967200D02*
X143477000Y-74817200D01*
X143477300Y-74976000D02*
X143477000Y-74967200D01*
X143751600Y-79671000D02*
X143477300Y-74976000D01*
X143812600Y-80041100D02*
X143858300Y-80157800D01*
X143758900Y-79796200D02*
X143812600Y-80041100D01*
X143751600Y-79671000D02*
X143758900Y-79796200D01*
X147037100Y-88279200D02*
X143858300Y-80157800D01*
X147122600Y-88439500D02*
X147162900Y-88485000D01*
X147059200Y-88335800D02*
X147122600Y-88439500D01*
X147037100Y-88279200D02*
X147059200Y-88335800D01*
X147228700Y-88559400D02*
X147162900Y-88485000D01*
X147261700Y-88597900D02*
X147228700Y-88559400D01*
X147390500Y-88753300D02*
X147261700Y-88597900D01*
X147472500Y-88807600D02*
X147506000Y-88807600D01*
X147411900Y-88779100D02*
X147472500Y-88807600D01*
X147390500Y-88753300D02*
X147411900Y-88779100D01*
X147656000Y-88807600D02*
X147506000Y-88807600D01*
X148456000Y-89382600D02*
X147656000Y-88807600D01*
D31*
X123372000Y-99507000D02*
X122522000Y-98882000D01*
X123372000Y-99607000D02*
X123372000Y-99507000D01*
X123376800Y-99639400D02*
X123381400Y-99649400D01*
X123372000Y-99618000D02*
X123376800Y-99639400D01*
X123372000Y-99607000D02*
X123372000Y-99618000D01*
X124493900Y-102028900D02*
X123381400Y-99649400D01*
X124508700Y-102060500D02*
X124493900Y-102028900D01*
X124531200Y-102126600D02*
X124508700Y-102060500D01*
X124538800Y-102160700D02*
X124531200Y-102126600D01*
X125628100Y-107046700D02*
X124538800Y-102160700D01*
X125629300Y-107052500D02*
X125628100Y-107046700D01*
X126311200Y-110251100D02*
X125629300Y-107052500D01*
X128229000Y-108043400D02*
X128501800Y-106790800D01*
X128219100Y-108088800D02*
X128229000Y-108043400D01*
X128186500Y-108175700D02*
X128219100Y-108088800D01*
X128164100Y-108216300D02*
X128186500Y-108175700D01*
X126871700Y-110560200D02*
X128164100Y-108216300D01*
X126869100Y-110564800D02*
X126871700Y-110560200D01*
X125675800Y-112687000D02*
X126869100Y-110564800D01*
X125663000Y-112723100D02*
X125663000Y-112736000D01*
X125669500Y-112698200D02*
X125663000Y-112723100D01*
X125675800Y-112687000D02*
X125669500Y-112698200D01*
X125663000Y-112836000D02*
X125663000Y-112736000D01*
X125163000Y-113061000D02*
X125663000Y-112836000D01*
X130553200Y-102047000D02*
X131122000Y-101422000D01*
X130553200Y-102147000D02*
X130553200Y-102047000D01*
X130553200Y-102600200D02*
X130553200Y-102147000D01*
X124663000Y-112864000D02*
X125163000Y-113061000D01*
X124563000Y-112864000D02*
X124663000Y-112864000D01*
X123869000Y-112864000D02*
X124563000Y-112864000D01*
X123769000Y-112864000D02*
X123869000Y-112864000D01*
X123419000Y-112667000D02*
X123769000Y-112864000D01*
X132331700Y-112268200D02*
X134346900Y-105034500D01*
X132328000Y-112288200D02*
X132328000Y-112295000D01*
X132329900Y-112274700D02*
X132328000Y-112288200D01*
X132331700Y-112268200D02*
X132329900Y-112274700D01*
X132328000Y-112395000D02*
X132328000Y-112295000D01*
X131978000Y-112895000D02*
X132328000Y-112395000D01*
X132328000Y-113028500D02*
X131978000Y-112895000D01*
X132428000Y-113028500D02*
X132328000Y-113028500D01*
X132919000Y-113028500D02*
X132428000Y-113028500D01*
X133019000Y-113028500D02*
X132919000Y-113028500D01*
X133519000Y-113162000D02*
X133019000Y-113028500D01*
X149794200Y-112305200D02*
X150877100Y-112542900D01*
X149159300Y-112466600D02*
X149068600Y-112678400D01*
X149569100Y-112255800D02*
X149159300Y-112466600D01*
X149794200Y-112305200D02*
X149569100Y-112255800D01*
X148820400Y-113258100D02*
X149068600Y-112678400D01*
X148820000Y-113259000D02*
X148820400Y-113258100D01*
X147804000Y-115650000D02*
X148820000Y-113259000D01*
X147790600Y-115681600D02*
X147804000Y-115650000D01*
X147751700Y-115738100D02*
X147790600Y-115681600D01*
X147727000Y-115761900D02*
X147751700Y-115738100D01*
X143607200Y-119732400D02*
X147727000Y-115761900D01*
X156206000Y-107000000D02*
X157056000Y-106375000D01*
X156106000Y-107000000D02*
X156206000Y-107000000D01*
X156046900Y-107016700D02*
X156032700Y-107032000D01*
X156085100Y-107000000D02*
X156046900Y-107016700D01*
X156106000Y-107000000D02*
X156085100Y-107000000D01*
X154512700Y-108668900D02*
X156032700Y-107032000D01*
X147806000Y-113445200D02*
X148031100Y-112892100D01*
X147796400Y-113466700D02*
X147806000Y-113445200D01*
X147401200Y-114273000D02*
X147796400Y-113466700D01*
X147391000Y-114305600D02*
X147391000Y-114317000D01*
X147396200Y-114283300D02*
X147391000Y-114305600D01*
X147401200Y-114273000D02*
X147396200Y-114283300D01*
X147391000Y-114417000D02*
X147391000Y-114317000D01*
X147041000Y-114917000D02*
X147391000Y-114417000D01*
X147606000Y-104460000D02*
X148456000Y-103835000D01*
X147606000Y-104560000D02*
X147606000Y-104460000D01*
X147606000Y-104585200D02*
X147606000Y-104560000D01*
X147582100Y-104629600D02*
X147606000Y-104585200D01*
X147561000Y-104643500D02*
X147582100Y-104629600D01*
X147538400Y-104658400D02*
X147561000Y-104643500D01*
X147284700Y-104949400D02*
X147261800Y-105078500D01*
X147428900Y-104730400D02*
X147284700Y-104949400D01*
X147538400Y-104658400D02*
X147428900Y-104730400D01*
X147171100Y-105590700D02*
X147261800Y-105078500D01*
X147171100Y-105590700D02*
X147168400Y-105609000D01*
X146810500Y-108558900D02*
X147168400Y-105609000D01*
X146691000Y-114949000D02*
X147041000Y-114917000D01*
X146591000Y-114949000D02*
X146691000Y-114949000D01*
X146100000Y-114949000D02*
X146591000Y-114949000D01*
X146000000Y-114949000D02*
X146100000Y-114949000D01*
X145500000Y-114981000D02*
X146000000Y-114949000D01*
X150599800Y-109881100D02*
X150315400Y-109521400D01*
X150634900Y-109925400D02*
X150599800Y-109881100D01*
X150672500Y-110032000D02*
X150634900Y-109925400D01*
X150673100Y-110088500D02*
X150672500Y-110032000D01*
X150679200Y-110687000D02*
X150673100Y-110088500D01*
X150803400Y-111085100D02*
X150913200Y-111175200D01*
X150680700Y-110829000D02*
X150803400Y-111085100D01*
X150679200Y-110687000D02*
X150680700Y-110829000D01*
X151562300Y-111707900D02*
X150913200Y-111175200D01*
X151636700Y-111768900D02*
X151562300Y-111707900D01*
X151761400Y-111915200D02*
X151636700Y-111768900D01*
X151809900Y-111998200D02*
X151761400Y-111915200D01*
X153317400Y-114579600D02*
X151809900Y-111998200D01*
X153324100Y-114591100D02*
X153317400Y-114579600D01*
X153331000Y-114616700D02*
X153324100Y-114591100D01*
X153331000Y-114630000D02*
X153331000Y-114616700D01*
X153331000Y-114730000D02*
X153331000Y-114630000D01*
X153831000Y-114955000D02*
X153331000Y-114730000D01*
X154331000Y-114911000D02*
X153831000Y-114955000D01*
X154431000Y-114911000D02*
X154331000Y-114911000D01*
X154947000Y-114911000D02*
X154431000Y-114911000D01*
X155047000Y-114911000D02*
X154947000Y-114911000D01*
X155397000Y-114867000D02*
X155047000Y-114911000D01*
M02*
